<?xml version="1.0" encoding="UTF-8" standalone="no"?>
<!-- Created with Inkscape (http://www.inkscape.org/) -->

<svg
   xmlns:dc="http://purl.org/dc/elements/1.1/"
   xmlns:cc="http://creativecommons.org/ns#"
   xmlns:rdf="http://www.w3.org/1999/02/22-rdf-syntax-ns#"
   xmlns:svg="http://www.w3.org/2000/svg"
   xmlns="http://www.w3.org/2000/svg"
   xmlns:sodipodi="http://sodipodi.sourceforge.net/DTD/sodipodi-0.dtd"
   xmlns:inkscape="http://www.inkscape.org/namespaces/inkscape"
   width="137.40315"
   height="86.409714"
   id="svg29696"
   version="1.1"
   inkscape:version="0.48.3.1 r9886"
   sodipodi:docname="gnode_logo.svg">
  <defs
     id="defs29698" />
  <sodipodi:namedview
     id="base"
     pagecolor="#ffffff"
     bordercolor="#666666"
     borderopacity="1.0"
     inkscape:pageopacity="0.0"
     inkscape:pageshadow="2"
     inkscape:zoom="2.75"
     inkscape:cx="56.477724"
     inkscape:cy="59.61325"
     inkscape:current-layer="layer1"
     showgrid="true"
     inkscape:document-units="px"
     inkscape:grid-bbox="true"
     showguides="true"
     inkscape:guide-bbox="true"
     inkscape:window-width="1440"
     inkscape:window-height="876"
     inkscape:window-x="0"
     inkscape:window-y="24"
     inkscape:window-maximized="1"
     fit-margin-top="0"
     fit-margin-left="0"
     fit-margin-right="0"
     fit-margin-bottom="0" />
  <metadata
     id="metadata29701">
    <rdf:RDF>
      <cc:Work
         rdf:about="">
        <dc:format>image/svg+xml</dc:format>
        <dc:type
           rdf:resource="http://purl.org/dc/dcmitype/StillImage" />
        <dc:title></dc:title>
      </cc:Work>
    </rdf:RDF>
  </metadata>
  <g
     id="layer1"
     inkscape:label="Layer 1"
     inkscape:groupmode="layer"
     transform="translate(21.191408,26.591333)">
    <path
       d="m 3.9252442,44.121557 c -0.40875,0 -0.817875,-0.0112 -1.231,-0.0326 C -10.265207,43.419957 -20.228101,32.372586 -19.559644,19.411706 -18.912183,6.8677055 -8.535231,-2.8735445 3.8847442,-2.8735445 c 0.408625,0 0.817875,0.01 1.230875,0.0312 12.9574998,0.66875 22.9218748,11.7163799 22.2534998,24.6748805 -0.647,12.546371 -11.024,22.289001 -23.4438748,22.289001"
       style="fill:#bbd9f3;fill-opacity:1;stroke:#bbd9f3;stroke-width:3.20000005;stroke-miterlimit:4;stroke-opacity:1;stroke-dasharray:none"
       id="path34"
       inkscape:connector-curvature="0" />
    <path
       d="m 31.84796,45.246994 c -0.543875,0 -1.09025,-0.0138 -1.639625,-0.0425 C 12.924585,44.313244 -0.36295291,29.579496 0.52913509,12.295746 1.3933971,-4.4367545 15.23221,-17.425504 31.79571,-17.425504 c 0.5455,0 1.090875,0.01375 1.641125,0.0425 17.28375,0.89125 30.570875,15.6249995 29.67975,32.9075 C 62.25271,32.256996 48.41246,45.246994 31.84796,45.246994"
       style="fill:#63a1d9;fill-opacity:1;fill-rule:nonzero;stroke:#63a1d9;stroke-width:3.20000005;stroke-miterlimit:4;stroke-opacity:1;stroke-dasharray:none"
       id="path28"
       inkscape:connector-curvature="0" />
    <path
       d="m 95.348132,44.576258 c -0.334583,0 -0.668024,-0.0091 -1.006034,-0.02695 C 83.712501,43.998333 75.536042,34.937741 76.085879,24.303578 76.615732,14.011718 85.126488,6.0216758 95.312448,6.0216758 c 0.336581,0 0.673449,0.00674 1.014599,0.027853 10.633313,0.5452692 18.808343,9.6124172 18.258513,20.2377422 -0.53185,10.297571 -9.04718,18.288752 -19.237428,18.288752"
       style="fill:#bbd9f3;fill-opacity:1;stroke:#bbd9f3;stroke-width:3.20000005;stroke-miterlimit:4;stroke-opacity:1;stroke-dasharray:none"
       id="path36"
       inkscape:connector-curvature="0" />
    <path
       d="m 65.34303,46.110417 c -0.61696,0 -1.23752,-0.01504 -1.8612,-0.04744 C 43.875201,45.050517 28.801283,28.336142 29.812359,8.7278406 30.792309,-10.254459 46.492218,-24.991333 65.28564,-24.991333 c 0.61743,0 1.23671,0.0162 1.86051,0.04859 19.60767,1.011312 34.68125,17.7279972 33.66993,37.333987 -0.98006,18.98461 -16.67962,33.719173 -35.47305,33.719173"
       style="fill:#5788c2;fill-opacity:1;fill-rule:nonzero;stroke:#5788c2;stroke-width:3.20000005;stroke-miterlimit:4;stroke-opacity:1;stroke-dasharray:none"
       id="path26"
       inkscape:connector-curvature="0" />
    <path
       style="fill:none;stroke:#bbd9f3;stroke-width:1.10000002;stroke-linecap:butt;stroke-linejoin:miter;stroke-miterlimit:4;stroke-opacity:1;stroke-dasharray:none"
       d="m 49.090909,18.545454 c 3.010064,0 5.28918,-0.225164 7.003929,-0.493324 4.904696,-0.767019 5.560982,1.463076 5.660954,-3.598694 0.154585,-7.8269188 0.741411,-21.4615698 2.145981,-21.1526958 2.087227,0.1683891 3.646542,17.3054928 3.667566,26.1946998 0.05453,6.201314 1.959136,7.327196 3.094436,7.2118 1.834161,-0.18643 1.279738,-5.180906 4.551378,-8.139761 1.014731,-0.917716 4.928877,-0.530836 6.114613,-0.510443"
       id="path30243"
       inkscape:connector-curvature="0"
       sodipodi:nodetypes="cssccssc" />
    <text
       xml:space="preserve"
       style="font-size:10.06888866px;font-style:normal;font-variant:normal;font-weight:bold;font-stretch:normal;text-align:start;line-height:125%;letter-spacing:0px;word-spacing:0px;writing-mode:lr-tb;text-anchor:start;fill:#1c4f9c;fill-opacity:1;stroke:none;font-family:Exo;-inkscape-font-specification:Exo Bold"
       x="-21.603178"
       y="57.099777"
       id="text30264"
       sodipodi:linespacing="125%"><tspan
         sodipodi:role="line"
         x="-21.603178"
         y="57.099777"
         id="tspan30270">G-Node Data API Python Client</tspan></text>
  </g>
</svg>
