<?xml version="1.0" encoding="utf-8"?>
<!-- Generator: Adobe Illustrator 12.0.1, SVG Export Plug-In . SVG Version: 6.00 Build 51448)  -->
<!DOCTYPE svg PUBLIC "-//W3C//DTD SVG 1.1//EN" "http://www.w3.org/Graphics/SVG/1.1/DTD/svg11.dtd" [
	<!ENTITY ns_svg "http://www.w3.org/2000/svg">
	<!ENTITY ns_xlink "http://www.w3.org/1999/xlink">
]>
<svg  version="1.1" id="Layer_1" xmlns="&ns_svg;" xmlns:xlink="&ns_xlink;" width="198.882" height="149.249"
	 viewBox="0 0 198.882 149.249" overflow="visible" enable-background="new 0 0 198.882 149.249" xml:space="preserve">
<g>
	<polyline fill="#FFFFFF" points="0.172,149.076 198.71,149.076 198.71,0.172 0.172,0.172 0.172,149.076 	"/>
	
		<polyline fill="none" stroke="#FFFFFF" stroke-width="0.3447" stroke-linecap="square" stroke-linejoin="round" stroke-miterlimit="10" points="
		0.172,149.076 198.71,149.076 198.71,0.172 0.172,0.172 0.172,149.076 	"/>
	<polyline fill="#FFFFFF" points="24.99,134.185 178.857,134.185 178.857,15.063 24.99,15.063 24.99,134.185 	"/>
	<g>
		<defs>
			<rect id="XMLID_55_" x="24.99" y="15.063" width="153.867" height="119.122"/>
		</defs>
		<clipPath id="XMLID_91_">
			<use xlink:href="#XMLID_55_" />
		</clipPath>
		<g clip-path="url(#XMLID_91_)">
			<polygon opacity="0.1" fill="#3A53A4" points="24.99,70.061 24.99,79.935 35.247,88.146 45.504,87.833 55.762,87.385 
				66.02,92.952 76.278,69.907 86.536,40.895 96.794,38.481 107.051,33.507 117.31,27.642 127.567,54.982 137.825,83.575 
				148.083,87.725 158.34,99.15 168.598,103.898 168.598,93.89 158.34,88.499 148.083,77.045 137.825,72.984 127.567,44.661 
				117.31,17.777 107.051,24.132 96.794,29.517 86.536,31.198 76.278,59.872 66.02,82.458 55.762,76.6 45.504,77.599 35.247,78.341 
							"/>
			
				<polygon opacity="0.1" fill="none" stroke="#000000" stroke-width="0.3447" stroke-linejoin="round" stroke-miterlimit="10" points="
				24.99,70.061 24.99,79.935 35.247,88.146 45.504,87.833 55.762,87.385 66.02,92.952 76.278,69.907 86.536,40.895 96.794,38.481 
				107.051,33.507 117.31,27.642 127.567,54.982 137.825,83.575 148.083,87.725 158.34,99.15 168.598,103.898 168.598,93.89 
				158.34,88.499 148.083,77.045 137.825,72.984 127.567,44.661 117.31,17.777 107.051,24.132 96.794,29.517 86.536,31.198 
				76.278,59.872 66.02,82.458 55.762,76.6 45.504,77.599 35.247,78.341 			"/>
		</g>
	</g>
	<g>
		<defs>
			<rect id="XMLID_57_" x="24.99" y="15.063" width="153.867" height="119.122"/>
		</defs>
		<clipPath id="XMLID_92_">
			<use xlink:href="#XMLID_57_" />
		</clipPath>
		<g clip-path="url(#XMLID_92_)">
			<polygon opacity="0.1" fill="#3A53A4" points="24.99,81.382 24.99,92.483 35.247,96.181 45.504,91.73 55.762,92.538 66.02,99.44 
				76.278,82.609 86.536,59.63 96.794,56.334 107.051,51.672 117.31,47.713 127.567,68.938 137.825,90.243 148.083,92.13 
				158.34,97.752 168.598,101.665 168.598,92.255 158.34,87.073 148.083,80.343 137.825,78.339 127.567,57.569 117.31,37.116 
				107.051,41.344 96.794,45.61 86.536,47.401 76.278,70.036 66.02,87.416 55.762,80.448 45.504,80.12 35.247,85.085 			"/>
			
				<polygon opacity="0.1" fill="none" stroke="#000000" stroke-width="0.3447" stroke-linejoin="round" stroke-miterlimit="10" points="
				24.99,81.382 24.99,92.483 35.247,96.181 45.504,91.73 55.762,92.538 66.02,99.44 76.278,82.609 86.536,59.63 96.794,56.334 
				107.051,51.672 117.31,47.713 127.567,68.938 137.825,90.243 148.083,92.13 158.34,97.752 168.598,101.665 168.598,92.255 
				158.34,87.073 148.083,80.343 137.825,78.339 127.567,57.569 117.31,37.116 107.051,41.344 96.794,45.61 86.536,47.401 
				76.278,70.036 66.02,87.416 55.762,80.448 45.504,80.12 35.247,85.085 			"/>
		</g>
	</g>
	<g>
		<defs>
			<rect id="XMLID_59_" x="24.99" y="15.063" width="153.867" height="119.122"/>
		</defs>
		<clipPath id="XMLID_93_">
			<use xlink:href="#XMLID_59_" />
		</clipPath>
		<g clip-path="url(#XMLID_93_)">
			<polygon opacity="0.1" fill="#3A53A4" points="24.99,76.681 24.99,87.749 35.247,96.194 45.504,94.545 55.762,92.838 
				66.02,99.229 76.278,77.556 86.536,50.781 96.794,46.831 107.051,42.578 117.31,38.528 127.567,63.928 137.825,86.352 
				148.083,92.87 158.34,103.815 168.598,109.076 168.598,99.66 158.34,93.55 148.083,82.367 137.825,75.573 127.567,53.164 
				117.31,28.749 107.051,33.543 96.794,37.676 86.536,41.231 76.278,67.648 66.02,89.163 55.762,82.803 45.504,84.745 
				35.247,85.74 			"/>
			
				<polygon opacity="0.1" fill="none" stroke="#000000" stroke-width="0.3447" stroke-linejoin="round" stroke-miterlimit="10" points="
				24.99,76.681 24.99,87.749 35.247,96.194 45.504,94.545 55.762,92.838 66.02,99.229 76.278,77.556 86.536,50.781 96.794,46.831 
				107.051,42.578 117.31,38.528 127.567,63.928 137.825,86.352 148.083,92.87 158.34,103.815 168.598,109.076 168.598,99.66 
				158.34,93.55 148.083,82.367 137.825,75.573 127.567,53.164 117.31,28.749 107.051,33.543 96.794,37.676 86.536,41.231 
				76.278,67.648 66.02,89.163 55.762,82.803 45.504,84.745 35.247,85.74 			"/>
		</g>
	</g>
	<g>
		<defs>
			<rect id="XMLID_61_" x="24.99" y="15.063" width="153.867" height="119.122"/>
		</defs>
		<clipPath id="XMLID_94_">
			<use xlink:href="#XMLID_61_" />
		</clipPath>
		<g clip-path="url(#XMLID_94_)">
			<polygon opacity="0.1" fill="#3A53A4" points="24.99,67.88 24.99,78.261 35.247,87.679 45.504,82.464 55.762,80.757 
				66.02,91.612 76.278,73.028 86.536,52.93 96.794,60.794 107.051,63.604 117.31,66.426 127.567,95.701 137.825,121.322 
				148.083,122.22 158.34,131.886 168.598,133.36 168.598,120.94 158.34,118.939 148.083,109.198 137.825,108.481 127.567,83.303 
				117.31,54.791 107.051,52.846 96.794,49.777 86.536,40.748 76.278,60.698 66.02,79.601 55.762,69.043 45.504,71.187 
				35.247,77.284 			"/>
			
				<polygon opacity="0.1" fill="none" stroke="#000000" stroke-width="0.3447" stroke-linejoin="round" stroke-miterlimit="10" points="
				24.99,67.88 24.99,78.261 35.247,87.679 45.504,82.464 55.762,80.757 66.02,91.612 76.278,73.028 86.536,52.93 96.794,60.794 
				107.051,63.604 117.31,66.426 127.567,95.701 137.825,121.322 148.083,122.22 158.34,131.886 168.598,133.36 168.598,120.94 
				158.34,118.939 148.083,109.198 137.825,108.481 127.567,83.303 117.31,54.791 107.051,52.846 96.794,49.777 86.536,40.748 
				76.278,60.698 66.02,79.601 55.762,69.043 45.504,71.187 35.247,77.284 			"/>
		</g>
	</g>
	<g>
		<defs>
			<rect id="XMLID_63_" x="24.99" y="15.063" width="153.867" height="119.122"/>
		</defs>
		<clipPath id="XMLID_95_">
			<use xlink:href="#XMLID_63_" />
		</clipPath>
		<g clip-path="url(#XMLID_95_)">
			<polygon opacity="0.1" fill="#3A53A4" points="24.99,74.747 24.99,85.564 35.247,84.653 45.504,79.981 55.762,79.706 
				66.02,88.167 76.278,69.951 86.536,47.642 96.794,46.916 107.051,41.097 117.31,34.111 127.567,58.767 137.825,80.971 
				148.083,84.896 158.34,98.448 168.598,105.507 168.598,96.771 158.34,89.462 148.083,75.655 137.825,71.668 127.567,49.445 
				117.31,25.063 107.051,32.028 96.794,37.355 86.536,37.143 76.278,58.853 66.02,77.067 55.762,68.578 45.504,69.19 
				35.247,74.195 			"/>
			
				<polygon opacity="0.1" fill="none" stroke="#000000" stroke-width="0.3447" stroke-linejoin="round" stroke-miterlimit="10" points="
				24.99,74.747 24.99,85.564 35.247,84.653 45.504,79.981 55.762,79.706 66.02,88.167 76.278,69.951 86.536,47.642 96.794,46.916 
				107.051,41.097 117.31,34.111 127.567,58.767 137.825,80.971 148.083,84.896 158.34,98.448 168.598,105.507 168.598,96.771 
				158.34,89.462 148.083,75.655 137.825,71.668 127.567,49.445 117.31,25.063 107.051,32.028 96.794,37.355 86.536,37.143 
				76.278,58.853 66.02,77.067 55.762,68.578 45.504,69.19 35.247,74.195 			"/>
		</g>
	</g>
	<g>
		<defs>
			<rect id="XMLID_65_" x="24.99" y="15.063" width="153.867" height="119.122"/>
		</defs>
		<clipPath id="XMLID_96_">
			<use xlink:href="#XMLID_65_" />
		</clipPath>
		<g clip-path="url(#XMLID_96_)">
			<polygon opacity="0.1" fill="#3A53A4" points="24.99,85.746 24.99,95.11 35.247,100.674 45.504,96.938 55.762,95.218 
				66.02,102.364 76.278,88.649 86.536,65.859 96.794,67.857 107.051,67.466 117.31,62.344 127.567,80.997 137.825,100.214 
				148.083,99.222 158.34,102.966 168.598,102.57 168.598,92.683 158.34,92.724 148.083,88.898 137.825,89.97 127.567,70.978 
				117.31,53.073 107.051,58.451 96.794,59.055 86.536,56.555 76.278,78.445 66.02,92.226 55.762,85.283 45.504,87.265 
				35.247,91.227 			"/>
			
				<polygon opacity="0.1" fill="none" stroke="#000000" stroke-width="0.3447" stroke-linejoin="round" stroke-miterlimit="10" points="
				24.99,85.746 24.99,95.11 35.247,100.674 45.504,96.938 55.762,95.218 66.02,102.364 76.278,88.649 86.536,65.859 96.794,67.857 
				107.051,67.466 117.31,62.344 127.567,80.997 137.825,100.214 148.083,99.222 158.34,102.966 168.598,102.57 168.598,92.683 
				158.34,92.724 148.083,88.898 137.825,89.97 127.567,70.978 117.31,53.073 107.051,58.451 96.794,59.055 86.536,56.555 
				76.278,78.445 66.02,92.226 55.762,85.283 45.504,87.265 35.247,91.227 			"/>
		</g>
	</g>
	<g>
		<defs>
			<rect id="XMLID_67_" x="24.99" y="15.063" width="153.867" height="119.122"/>
		</defs>
		<clipPath id="XMLID_97_">
			<use xlink:href="#XMLID_67_" />
		</clipPath>
		
			<polyline clip-path="url(#XMLID_97_)" fill="none" stroke="#3A53A4" stroke-width="0.3447" stroke-linecap="square" stroke-linejoin="round" stroke-miterlimit="10" points="
			24.99,74.998 35.247,83.243 45.504,82.716 55.762,81.991 66.02,87.705 76.278,64.889 86.536,36.047 96.794,33.999 107.051,28.819 
			117.31,22.709 127.567,49.822 137.825,78.28 148.083,82.385 158.34,93.825 168.598,98.894 		"/>
	</g>
	<g>
		<defs>
			<rect id="XMLID_69_" x="24.99" y="15.063" width="153.867" height="119.122"/>
		</defs>
		<clipPath id="XMLID_98_">
			<use xlink:href="#XMLID_69_" />
		</clipPath>
		
			<polyline clip-path="url(#XMLID_98_)" fill="none" stroke="#108140" stroke-width="0.3447" stroke-linecap="square" stroke-linejoin="round" stroke-miterlimit="10" points="
			24.99,86.933 35.247,90.632 45.504,85.925 55.762,86.493 66.02,93.429 76.278,76.323 86.536,53.516 96.794,50.973 107.051,46.508 
			117.31,42.415 127.567,63.253 137.825,84.29 148.083,86.237 158.34,92.411 168.598,96.959 		"/>
	</g>
	<g>
		<defs>
			<rect id="XMLID_71_" x="24.99" y="15.063" width="153.867" height="119.122"/>
		</defs>
		<clipPath id="XMLID_99_">
			<use xlink:href="#XMLID_71_" />
		</clipPath>
		
			<polyline clip-path="url(#XMLID_99_)" fill="none" stroke="#ED2224" stroke-width="0.3447" stroke-linecap="square" stroke-linejoin="round" stroke-miterlimit="10" points="
			24.99,82.216 35.247,90.967 45.504,89.646 55.762,87.819 66.02,94.195 76.278,72.602 86.536,46.006 96.794,42.253 107.051,38.061 
			117.31,33.638 127.567,58.545 137.825,80.963 148.083,87.618 158.34,98.683 168.598,104.368 		"/>
	</g>
	<g>
		<defs>
			<rect id="XMLID_73_" x="24.99" y="15.063" width="153.867" height="119.122"/>
		</defs>
		<clipPath id="XMLID_100_">
			<use xlink:href="#XMLID_73_" />
		</clipPath>
		
			<polyline clip-path="url(#XMLID_100_)" fill="none" stroke="#1FBCBD" stroke-width="0.3447" stroke-linecap="square" stroke-linejoin="round" stroke-miterlimit="10" points="
			24.99,73.07 35.247,82.482 45.504,76.826 55.762,74.899 66.02,85.606 76.278,66.863 86.536,46.839 96.794,55.286 107.051,58.225 
			117.31,60.608 127.567,89.502 137.825,114.902 148.083,115.709 158.34,125.413 168.598,127.15 		"/>
	</g>
	<g>
		<defs>
			<rect id="XMLID_75_" x="24.99" y="15.063" width="153.867" height="119.122"/>
		</defs>
		<clipPath id="XMLID_101_">
			<use xlink:href="#XMLID_75_" />
		</clipPath>
		
			<polyline clip-path="url(#XMLID_101_)" fill="none" stroke="#A43F97" stroke-width="0.3447" stroke-linecap="square" stroke-linejoin="round" stroke-miterlimit="10" points="
			24.99,80.157 35.247,79.425 45.504,74.586 55.762,74.143 66.02,82.618 76.278,64.402 86.536,42.392 96.794,42.135 107.051,36.562 
			117.31,29.587 127.567,54.106 137.825,76.319 148.083,80.274 158.34,93.955 168.598,101.138 		"/>
	</g>
	<g>
		<defs>
			<rect id="XMLID_77_" x="24.99" y="15.063" width="153.867" height="119.122"/>
		</defs>
		<clipPath id="XMLID_102_">
			<use xlink:href="#XMLID_77_" />
		</clipPath>
		
			<polyline clip-path="url(#XMLID_102_)" fill="none" stroke="#BDBF32" stroke-width="0.3447" stroke-linecap="square" stroke-linejoin="round" stroke-miterlimit="10" points="
			24.99,90.429 35.247,95.95 45.504,92.103 55.762,90.251 66.02,97.294 76.278,83.547 86.536,61.207 96.794,63.457 107.051,62.958 
			117.31,57.709 127.567,75.988 137.825,95.091 148.083,94.06 158.34,97.844 168.598,97.626 		"/>
	</g>
	
		<line fill="none" stroke="#000000" stroke-width="0.1723" stroke-linejoin="round" stroke-miterlimit="10" x1="24.99" y1="134.185" x2="24.99" y2="132.806"/>
	
		<line fill="none" stroke="#000000" stroke-width="0.1723" stroke-linejoin="round" stroke-miterlimit="10" x1="24.99" y1="15.063" x2="24.99" y2="16.442"/>
	<polyline points="24.955,138.292 25.623,138.292 25.623,135.99 24.899,136.137 24.899,135.763 25.618,135.619 26.027,135.619 
		26.027,138.292 26.693,138.292 26.693,138.634 24.955,138.634 24.955,138.292 	"/>
	<path d="M28.388,135.565c0.335,0,0.593,0.136,0.773,0.4c0.178,0.27,0.269,0.657,0.269,1.162c0,0.51-0.091,0.898-0.269,1.164
		c-0.181,0.264-0.438,0.396-0.773,0.396c-0.339,0-0.599-0.132-0.778-0.396c-0.177-0.266-0.264-0.654-0.264-1.164
		c0-0.505,0.087-0.893,0.264-1.162C27.79,135.701,28.049,135.565,28.388,135.565 M28.388,135.888c-0.21,0-0.367,0.103-0.476,0.312
		c-0.107,0.206-0.157,0.516-0.157,0.929c0,0.414,0.05,0.725,0.157,0.932c0.108,0.207,0.266,0.311,0.476,0.311
		c0.212,0,0.368-0.104,0.476-0.311c0.104-0.207,0.157-0.518,0.157-0.932c0-0.413-0.053-0.723-0.157-0.929
		C28.756,135.99,28.6,135.888,28.388,135.888"/>
	<g>
		<defs>
			<path id="XMLID_79_" d="M20.216,139.67h6.089v-4.818h-6.089V139.67z M24.99,15.063v1.379"/>
		</defs>
		<clipPath id="XMLID_103_">
			<use xlink:href="#XMLID_79_" />
		</clipPath>
		<polyline clip-path="url(#XMLID_103_)" points="21.416,137.225 24.004,137.225 24.004,137.568 21.416,137.568 21.416,137.225 		
			"/>
	</g>
	
		<line fill="none" stroke="#000000" stroke-width="0.1723" stroke-linejoin="round" stroke-miterlimit="10" x1="50.634" y1="134.185" x2="50.634" y2="132.806"/>
	
		<line fill="none" stroke="#000000" stroke-width="0.1723" stroke-linejoin="round" stroke-miterlimit="10" x1="50.634" y1="15.063" x2="50.634" y2="16.442"/>
	<path d="M51.894,135.565h1.601v0.343h-1.229v0.74c0.058-0.02,0.12-0.037,0.178-0.045c0.057-0.008,0.12-0.018,0.178-0.018
		c0.334,0,0.6,0.096,0.8,0.278c0.197,0.186,0.296,0.435,0.296,0.749c0,0.325-0.104,0.577-0.306,0.757
		c-0.203,0.178-0.488,0.264-0.852,0.264c-0.129,0-0.256-0.012-0.389-0.028c-0.133-0.022-0.265-0.051-0.405-0.094v-0.41
		c0.119,0.065,0.245,0.115,0.376,0.148c0.128,0.032,0.265,0.045,0.41,0.045c0.23,0,0.417-0.058,0.555-0.183
		c0.131-0.123,0.201-0.288,0.201-0.499c0-0.207-0.07-0.373-0.201-0.498c-0.138-0.122-0.324-0.185-0.555-0.185
		c-0.108,0-0.22,0.012-0.328,0.037c-0.107,0.025-0.22,0.062-0.33,0.11V135.565"/>
	<g>
		<defs>
			<path id="XMLID_81_" d="M47.219,139.615h6.089v-4.818h-6.089V139.615z M50.634,15.063v1.379"/>
		</defs>
		<clipPath id="XMLID_104_">
			<use xlink:href="#XMLID_81_" />
		</clipPath>
		<polyline clip-path="url(#XMLID_104_)" points="48.419,137.171 51.008,137.171 51.008,137.515 48.419,137.515 48.419,137.171 		
			"/>
	</g>
	
		<line fill="none" stroke="#000000" stroke-width="0.1723" stroke-linejoin="round" stroke-miterlimit="10" x1="76.278" y1="134.185" x2="76.278" y2="132.806"/>
	
		<line fill="none" stroke="#000000" stroke-width="0.1723" stroke-linejoin="round" stroke-miterlimit="10" x1="76.278" y1="15.063" x2="76.278" y2="16.442"/>
	<path d="M76.552,135.565c0.334,0,0.591,0.136,0.772,0.4c0.178,0.27,0.271,0.657,0.271,1.162c0,0.51-0.093,0.898-0.271,1.164
		c-0.182,0.264-0.438,0.396-0.772,0.396c-0.339,0-0.601-0.132-0.778-0.396c-0.177-0.266-0.265-0.654-0.265-1.164
		c0-0.505,0.088-0.893,0.265-1.162C75.952,135.701,76.213,135.565,76.552,135.565 M76.552,135.888c-0.213,0-0.368,0.103-0.477,0.312
		c-0.107,0.206-0.157,0.516-0.157,0.929c0,0.414,0.05,0.725,0.157,0.932c0.108,0.207,0.264,0.311,0.477,0.311
		c0.211,0,0.367-0.104,0.475-0.311c0.103-0.207,0.157-0.518,0.157-0.932c0-0.413-0.055-0.723-0.157-0.929
		C76.919,135.99,76.763,135.888,76.552,135.888"/>
	
		<line fill="none" stroke="#000000" stroke-width="0.1723" stroke-linejoin="round" stroke-miterlimit="10" x1="101.923" y1="134.185" x2="101.923" y2="132.806"/>
	
		<line fill="none" stroke="#000000" stroke-width="0.1723" stroke-linejoin="round" stroke-miterlimit="10" x1="101.923" y1="15.063" x2="101.923" y2="16.442"/>
	<path d="M101.392,135.565h1.602v0.343h-1.23v0.74c0.059-0.02,0.121-0.037,0.179-0.045c0.059-0.008,0.12-0.018,0.178-0.018
		c0.335,0,0.6,0.096,0.798,0.278c0.2,0.186,0.299,0.435,0.299,0.749c0,0.325-0.103,0.577-0.307,0.757
		c-0.202,0.178-0.488,0.264-0.853,0.264c-0.128,0-0.255-0.012-0.389-0.028c-0.132-0.022-0.264-0.051-0.403-0.094v-0.41
		c0.118,0.065,0.243,0.115,0.376,0.148c0.127,0.032,0.263,0.045,0.409,0.045c0.231,0,0.417-0.058,0.555-0.183
		c0.131-0.123,0.201-0.288,0.201-0.499c0-0.207-0.07-0.373-0.201-0.498c-0.138-0.122-0.323-0.185-0.555-0.185
		c-0.108,0-0.22,0.012-0.327,0.037s-0.219,0.062-0.331,0.11V135.565"/>
	
		<line fill="none" stroke="#000000" stroke-width="0.1723" stroke-linejoin="round" stroke-miterlimit="10" x1="127.567" y1="134.185" x2="127.567" y2="132.806"/>
	
		<line fill="none" stroke="#000000" stroke-width="0.1723" stroke-linejoin="round" stroke-miterlimit="10" x1="127.567" y1="15.063" x2="127.567" y2="16.442"/>
	<polyline points="125.811,138.292 126.477,138.292 126.477,135.99 125.752,136.137 125.752,135.763 126.473,135.619 
		126.881,135.619 126.881,138.292 127.547,138.292 127.547,138.634 125.811,138.634 125.811,138.292 	"/>
	<path d="M129.244,135.565c0.336,0,0.591,0.136,0.772,0.4c0.18,0.27,0.27,0.657,0.27,1.162c0,0.51-0.09,0.898-0.27,1.164
		c-0.182,0.264-0.437,0.396-0.772,0.396c-0.339,0-0.602-0.132-0.778-0.396c-0.177-0.266-0.264-0.654-0.264-1.164
		c0-0.505,0.087-0.893,0.264-1.162C128.642,135.701,128.905,135.565,129.244,135.565 M129.244,135.888
		c-0.212,0-0.368,0.103-0.477,0.312c-0.105,0.206-0.156,0.516-0.156,0.929c0,0.414,0.051,0.725,0.156,0.932
		c0.108,0.207,0.265,0.311,0.477,0.311s0.369-0.104,0.476-0.311c0.104-0.207,0.156-0.518,0.156-0.932
		c0-0.413-0.053-0.723-0.156-0.929C129.613,135.99,129.456,135.888,129.244,135.888"/>
	
		<line fill="none" stroke="#000000" stroke-width="0.1723" stroke-linejoin="round" stroke-miterlimit="10" x1="153.21" y1="134.185" x2="153.21" y2="132.806"/>
	
		<line fill="none" stroke="#000000" stroke-width="0.1723" stroke-linejoin="round" stroke-miterlimit="10" x1="153.21" y1="15.063" x2="153.21" y2="16.442"/>
	<polyline points="151.499,138.237 152.164,138.237 152.164,135.938 151.44,136.082 151.44,135.71 152.16,135.565 152.569,135.565 
		152.569,138.237 153.235,138.237 153.235,138.58 151.499,138.58 151.499,138.237 	"/>
	<path d="M154.062,135.565h1.6v0.343h-1.227v0.74c0.057-0.02,0.12-0.037,0.178-0.045s0.12-0.018,0.178-0.018
		c0.334,0,0.6,0.096,0.799,0.278c0.198,0.186,0.297,0.435,0.297,0.749c0,0.325-0.103,0.577-0.306,0.757
		c-0.203,0.178-0.488,0.264-0.852,0.264c-0.129,0-0.258-0.012-0.389-0.028c-0.133-0.022-0.266-0.051-0.406-0.094v-0.41
		c0.12,0.065,0.244,0.115,0.377,0.148c0.128,0.032,0.265,0.045,0.409,0.045c0.231,0,0.417-0.058,0.554-0.183
		c0.133-0.123,0.203-0.288,0.203-0.499c0-0.207-0.07-0.373-0.203-0.498c-0.137-0.122-0.322-0.185-0.554-0.185
		c-0.107,0-0.219,0.012-0.326,0.037c-0.109,0.025-0.221,0.062-0.332,0.11V135.565"/>
	
		<line fill="none" stroke="#000000" stroke-width="0.1723" stroke-linejoin="round" stroke-miterlimit="10" x1="178.857" y1="134.185" x2="178.857" y2="132.806"/>
	
		<line fill="none" stroke="#000000" stroke-width="0.1723" stroke-linejoin="round" stroke-miterlimit="10" x1="178.857" y1="15.063" x2="178.857" y2="16.442"/>
	<path d="M177.306,138.292h1.422v0.342h-1.914v-0.342c0.152-0.158,0.364-0.374,0.631-0.646c0.265-0.27,0.436-0.442,0.506-0.521
		c0.133-0.145,0.222-0.27,0.274-0.372c0.048-0.101,0.077-0.202,0.077-0.304c0-0.155-0.059-0.289-0.17-0.388
		c-0.111-0.1-0.256-0.153-0.438-0.153c-0.129,0-0.264,0.025-0.404,0.066c-0.142,0.045-0.295,0.112-0.455,0.203v-0.415
		c0.164-0.065,0.316-0.115,0.458-0.148c0.143-0.031,0.272-0.049,0.394-0.049c0.311,0,0.558,0.078,0.745,0.235
		c0.186,0.157,0.28,0.363,0.28,0.624c0,0.126-0.024,0.245-0.069,0.353c-0.047,0.111-0.129,0.243-0.253,0.393
		c-0.033,0.042-0.142,0.154-0.322,0.339C177.884,137.695,177.63,137.957,177.306,138.292"/>
	<path d="M180.458,135.565c0.335,0,0.591,0.136,0.772,0.4c0.179,0.27,0.269,0.657,0.269,1.162c0,0.51-0.09,0.898-0.269,1.164
		c-0.182,0.264-0.438,0.396-0.772,0.396c-0.34,0-0.601-0.132-0.777-0.396c-0.179-0.266-0.267-0.654-0.267-1.164
		c0-0.505,0.088-0.893,0.267-1.162C179.857,135.701,180.118,135.565,180.458,135.565 M180.458,135.888
		c-0.212,0-0.368,0.103-0.476,0.312c-0.107,0.206-0.157,0.516-0.157,0.929c0,0.414,0.05,0.725,0.157,0.932s0.264,0.311,0.476,0.311
		c0.211,0,0.368-0.104,0.476-0.311c0.104-0.207,0.157-0.518,0.157-0.932c0-0.413-0.054-0.723-0.157-0.929
		C180.826,135.99,180.668,135.888,180.458,135.888"/>
	<polyline points="93.678,140.547 96.226,140.547 96.226,140.891 95.154,140.891 95.154,143.562 94.744,143.562 94.744,140.891 
		93.678,140.891 93.678,140.547 	"/>
	<path d="M96.602,140.418h0.371v0.473h-0.371V140.418 M96.602,141.301h0.371v2.261h-0.371V141.301"/>
	<path d="M99.513,141.734c0.091-0.165,0.203-0.286,0.331-0.368c0.127-0.079,0.281-0.12,0.459-0.12c0.231,0,0.413,0.082,0.541,0.248
		c0.13,0.165,0.196,0.399,0.196,0.703v1.364h-0.373v-1.353c0-0.215-0.041-0.376-0.116-0.484c-0.078-0.102-0.193-0.155-0.352-0.155
		c-0.193,0-0.348,0.065-0.458,0.194c-0.112,0.127-0.166,0.301-0.166,0.521v1.276h-0.372v-1.353c0-0.215-0.042-0.376-0.116-0.484
		c-0.079-0.102-0.199-0.155-0.355-0.155c-0.19,0-0.344,0.065-0.455,0.194c-0.113,0.127-0.166,0.301-0.166,0.521v1.276H97.74v-2.261
		h0.371v0.351c0.083-0.137,0.187-0.239,0.307-0.305c0.116-0.067,0.256-0.101,0.423-0.101c0.163,0,0.301,0.041,0.417,0.124
		S99.457,141.576,99.513,141.734"/>
	<path d="M103.343,142.23c-0.005-0.201-0.062-0.365-0.169-0.487c-0.111-0.12-0.261-0.183-0.442-0.183
		c-0.208,0-0.373,0.062-0.497,0.178c-0.125,0.115-0.198,0.281-0.215,0.492H103.343 M103.715,142.338v0.182h-1.708
		c0.017,0.257,0.092,0.455,0.232,0.589c0.137,0.131,0.326,0.197,0.574,0.197c0.142,0,0.282-0.017,0.414-0.049
		c0.132-0.033,0.269-0.087,0.4-0.162v0.352c-0.132,0.059-0.269,0.104-0.41,0.128c-0.139,0.026-0.284,0.042-0.424,0.042
		c-0.364,0-0.649-0.104-0.862-0.311c-0.211-0.207-0.313-0.492-0.313-0.853c0-0.368,0.101-0.661,0.298-0.881
		c0.199-0.216,0.473-0.326,0.811-0.326c0.308,0,0.547,0.101,0.725,0.294C103.625,141.738,103.715,142.003,103.715,142.338"/>
	<path d="M106.533,140.423c-0.182,0.314-0.314,0.62-0.401,0.924c-0.09,0.301-0.132,0.606-0.132,0.916
		c0,0.314,0.042,0.622,0.132,0.923c0.087,0.307,0.22,0.607,0.401,0.918h-0.323c-0.201-0.317-0.354-0.624-0.455-0.93
		c-0.099-0.307-0.147-0.607-0.147-0.911c0-0.297,0.049-0.599,0.147-0.906c0.101-0.305,0.248-0.616,0.455-0.934H106.533"/>
	<path d="M108.696,141.366v0.351c-0.108-0.049-0.215-0.09-0.326-0.12c-0.116-0.024-0.232-0.04-0.353-0.04
		c-0.185,0-0.326,0.028-0.418,0.087c-0.091,0.058-0.137,0.14-0.137,0.25c0,0.089,0.034,0.155,0.102,0.204
		c0.064,0.049,0.197,0.1,0.396,0.141l0.129,0.028c0.263,0.059,0.448,0.143,0.562,0.241c0.106,0.103,0.165,0.248,0.165,0.43
		c0,0.211-0.082,0.377-0.249,0.495c-0.165,0.125-0.396,0.184-0.686,0.184c-0.124,0-0.248-0.013-0.381-0.032
		c-0.133-0.022-0.269-0.057-0.413-0.104v-0.385c0.136,0.075,0.272,0.129,0.404,0.162c0.132,0.037,0.266,0.052,0.397,0.052
		c0.174,0,0.31-0.026,0.405-0.085c0.092-0.059,0.142-0.145,0.142-0.258c0-0.099-0.038-0.177-0.104-0.231
		c-0.066-0.053-0.215-0.107-0.446-0.157l-0.128-0.029c-0.232-0.049-0.401-0.122-0.501-0.223c-0.104-0.1-0.153-0.236-0.153-0.413
		c0-0.211,0.074-0.377,0.224-0.493c0.149-0.115,0.364-0.173,0.645-0.173c0.137,0,0.266,0.013,0.39,0.033
		C108.481,141.301,108.592,141.328,108.696,141.366"/>
	<path d="M109.349,140.423h0.323c0.198,0.317,0.351,0.629,0.449,0.934c0.1,0.308,0.154,0.609,0.154,0.906
		c0,0.304-0.055,0.604-0.154,0.911c-0.099,0.306-0.251,0.612-0.449,0.93h-0.323c0.179-0.311,0.311-0.611,0.401-0.918
		c0.086-0.301,0.133-0.608,0.133-0.923c0-0.31-0.047-0.615-0.133-0.916C109.66,141.043,109.528,140.737,109.349,140.423"/>
	
		<line fill="none" stroke="#000000" stroke-width="0.1723" stroke-linejoin="round" stroke-miterlimit="10" x1="24.99" y1="134.185" x2="26.369" y2="134.185"/>
	
		<line fill="none" stroke="#000000" stroke-width="0.1723" stroke-linejoin="round" stroke-miterlimit="10" x1="178.857" y1="134.185" x2="177.479" y2="134.185"/>
	<path d="M19.01,132.623c0.335,0,0.591,0.136,0.772,0.4c0.179,0.27,0.269,0.658,0.269,1.161c0,0.51-0.09,0.898-0.269,1.163
		c-0.182,0.266-0.438,0.397-0.772,0.397c-0.34,0-0.601-0.132-0.777-0.397c-0.179-0.265-0.267-0.653-0.267-1.163
		c0-0.503,0.088-0.892,0.267-1.161C18.41,132.759,18.67,132.623,19.01,132.623 M19.01,132.944c-0.211,0-0.368,0.104-0.477,0.312
		c-0.107,0.206-0.157,0.516-0.157,0.929c0,0.414,0.05,0.725,0.157,0.931c0.108,0.207,0.266,0.312,0.477,0.312
		c0.21,0,0.366-0.104,0.475-0.312c0.104-0.206,0.158-0.517,0.158-0.931c0-0.413-0.054-0.723-0.158-0.929
		C19.376,133.049,19.22,132.944,19.01,132.944"/>
	<polyline points="20.768,135.177 21.194,135.177 21.194,135.691 20.768,135.691 20.768,135.177 	"/>
	<path d="M23.095,132.676h0.516v1.964h0.429v0.341h-0.429v0.711h-0.406v-0.711h-1.361v-0.394L23.095,132.676 M23.205,133.032
		l-1.029,1.607h1.029V133.032"/>
	<g>
		<defs>
			<path id="XMLID_83_" d="M13.467,136.727h6.089v-4.818h-6.089V136.727z M178.857,134.185h-1.378"/>
		</defs>
		<clipPath id="XMLID_105_">
			<use xlink:href="#XMLID_83_" />
		</clipPath>
		<polyline clip-path="url(#XMLID_105_)" points="14.667,134.283 17.256,134.283 17.256,134.625 14.667,134.625 14.667,134.283 		
			"/>
	</g>
	
		<line fill="none" stroke="#000000" stroke-width="0.1723" stroke-linejoin="round" stroke-miterlimit="10" x1="24.99" y1="120.95" x2="26.369" y2="120.95"/>
	
		<line fill="none" stroke="#000000" stroke-width="0.1723" stroke-linejoin="round" stroke-miterlimit="10" x1="178.857" y1="120.95" x2="177.479" y2="120.95"/>
	<path d="M19.112,119.386c0.336,0,0.592,0.136,0.774,0.402c0.177,0.268,0.268,0.657,0.268,1.162c0,0.508-0.091,0.897-0.268,1.162
		c-0.183,0.264-0.438,0.396-0.774,0.396c-0.339,0-0.599-0.132-0.778-0.396c-0.177-0.265-0.263-0.654-0.263-1.162
		c0-0.505,0.086-0.895,0.263-1.162C18.513,119.521,18.773,119.386,19.112,119.386 M19.112,119.709c-0.212,0-0.368,0.104-0.475,0.31
		c-0.108,0.207-0.157,0.518-0.157,0.932c0,0.413,0.049,0.724,0.157,0.931c0.106,0.207,0.263,0.309,0.475,0.309
		c0.211,0,0.369-0.102,0.475-0.309c0.104-0.207,0.157-0.518,0.157-0.931c0-0.414-0.053-0.725-0.157-0.932
		C19.481,119.812,19.323,119.709,19.112,119.709"/>
	<polyline points="20.869,121.943 21.296,121.943 21.296,122.455 20.869,122.455 20.869,121.943 	"/>
	<path d="M23.422,120.83c0.194,0.041,0.348,0.127,0.454,0.26c0.108,0.133,0.166,0.299,0.166,0.489c0,0.296-0.104,0.528-0.308,0.69
		c-0.206,0.16-0.495,0.238-0.872,0.238c-0.127,0-0.26-0.011-0.392-0.037c-0.134-0.02-0.274-0.058-0.415-0.107v-0.393
		c0.112,0.067,0.235,0.117,0.373,0.149c0.133,0.033,0.273,0.05,0.423,0.05c0.256,0,0.45-0.05,0.582-0.148
		c0.133-0.101,0.202-0.248,0.202-0.442c0-0.174-0.062-0.315-0.186-0.413c-0.123-0.102-0.297-0.155-0.521-0.155h-0.353v-0.333h0.368
		c0.198,0,0.354-0.039,0.46-0.122c0.107-0.077,0.161-0.192,0.161-0.347c0-0.153-0.059-0.272-0.167-0.355
		c-0.11-0.083-0.268-0.124-0.47-0.124c-0.111,0-0.231,0.013-0.36,0.038c-0.128,0.023-0.269,0.061-0.422,0.11v-0.363
		c0.153-0.041,0.298-0.074,0.435-0.096c0.132-0.021,0.261-0.033,0.385-0.033c0.306,0,0.551,0.07,0.73,0.211
		c0.184,0.141,0.274,0.331,0.274,0.572c0,0.165-0.05,0.305-0.146,0.421C23.732,120.707,23.596,120.789,23.422,120.83"/>
	<g>
		<defs>
			<path id="XMLID_85_" d="M13.571,123.49h6.088v-4.817h-6.088V123.49z M178.857,120.95h-1.378"/>
		</defs>
		<clipPath id="XMLID_106_">
			<use xlink:href="#XMLID_85_" />
		</clipPath>
		<polyline clip-path="url(#XMLID_106_)" points="14.768,121.046 17.358,121.046 17.358,121.39 14.768,121.39 14.768,121.046 		"/>
	</g>
	
		<line fill="none" stroke="#000000" stroke-width="0.1723" stroke-linejoin="round" stroke-miterlimit="10" x1="24.99" y1="107.714" x2="26.369" y2="107.714"/>
	
		<line fill="none" stroke="#000000" stroke-width="0.1723" stroke-linejoin="round" stroke-miterlimit="10" x1="178.857" y1="107.714" x2="177.479" y2="107.714"/>
	<path d="M19.193,106.15c0.335,0,0.592,0.137,0.774,0.401c0.177,0.268,0.268,0.657,0.268,1.161c0,0.509-0.091,0.899-0.268,1.163
		c-0.183,0.265-0.439,0.398-0.774,0.398c-0.34,0-0.6-0.134-0.777-0.398c-0.179-0.264-0.265-0.654-0.265-1.163
		c0-0.504,0.086-0.894,0.265-1.161C18.593,106.287,18.853,106.15,19.193,106.15 M19.193,106.474c-0.211,0-0.369,0.103-0.476,0.311
		c-0.107,0.206-0.157,0.516-0.157,0.929c0,0.414,0.05,0.726,0.157,0.931c0.106,0.208,0.265,0.312,0.476,0.312
		s0.368-0.104,0.476-0.312c0.104-0.205,0.158-0.517,0.158-0.931c0-0.413-0.054-0.723-0.158-0.929
		C19.561,106.576,19.404,106.474,19.193,106.474"/>
	<polyline points="20.951,108.706 21.375,108.706 21.375,109.22 20.951,109.22 20.951,108.706 	"/>
	<path d="M22.618,108.876h1.423v0.344h-1.915v-0.344c0.152-0.156,0.363-0.373,0.633-0.645c0.265-0.27,0.435-0.442,0.505-0.522
		c0.133-0.145,0.224-0.269,0.272-0.37c0.05-0.1,0.079-0.205,0.079-0.304c0-0.157-0.059-0.289-0.169-0.388
		c-0.113-0.1-0.258-0.154-0.439-0.154c-0.128,0-0.265,0.025-0.405,0.066c-0.141,0.046-0.294,0.111-0.455,0.203v-0.414
		c0.164-0.066,0.318-0.115,0.459-0.148s0.273-0.05,0.393-0.05c0.31,0,0.559,0.078,0.745,0.236c0.187,0.157,0.282,0.364,0.282,0.624
		c0,0.123-0.026,0.244-0.072,0.352c-0.045,0.111-0.128,0.243-0.251,0.393c-0.033,0.041-0.141,0.154-0.322,0.338
		C23.196,108.28,22.943,108.54,22.618,108.876"/>
	<g>
		<defs>
			<path id="XMLID_87_" d="M13.652,110.255h6.087v-4.819h-6.087V110.255z M178.857,107.714h-1.378"/>
		</defs>
		<clipPath id="XMLID_107_">
			<use xlink:href="#XMLID_87_" />
		</clipPath>
		<polyline clip-path="url(#XMLID_107_)" points="14.849,107.81 17.439,107.81 17.439,108.153 14.849,108.153 14.849,107.81 		"/>
	</g>
	
		<line fill="none" stroke="#000000" stroke-width="0.1723" stroke-linejoin="round" stroke-miterlimit="10" x1="24.99" y1="94.478" x2="26.369" y2="94.478"/>
	
		<line fill="none" stroke="#000000" stroke-width="0.1723" stroke-linejoin="round" stroke-miterlimit="10" x1="178.857" y1="94.478" x2="177.479" y2="94.478"/>
	<path d="M19.161,92.914c0.335,0,0.592,0.137,0.773,0.401c0.179,0.269,0.269,0.658,0.269,1.162c0,0.51-0.09,0.898-0.269,1.162
		c-0.182,0.265-0.438,0.397-0.773,0.397c-0.339,0-0.6-0.133-0.777-0.397c-0.178-0.264-0.265-0.652-0.265-1.162
		c0-0.504,0.087-0.894,0.265-1.162C18.561,93.051,18.822,92.914,19.161,92.914 M19.161,93.237c-0.211,0-0.369,0.104-0.476,0.311
		c-0.108,0.206-0.156,0.516-0.156,0.93s0.048,0.725,0.156,0.932c0.106,0.205,0.265,0.31,0.476,0.31s0.367-0.104,0.476-0.31
		c0.104-0.207,0.157-0.518,0.157-0.932s-0.054-0.724-0.157-0.93C19.528,93.341,19.372,93.237,19.161,93.237"/>
	<polyline points="20.918,95.471 21.344,95.471 21.344,95.983 20.918,95.983 20.918,95.471 	"/>
	<polyline points="22.303,95.64 22.97,95.64 22.97,93.341 22.246,93.485 22.246,93.113 22.966,92.968 23.375,92.968 23.375,95.64 
		24.042,95.64 24.042,95.983 22.303,95.983 22.303,95.64 	"/>
	<g>
		<defs>
			<path id="XMLID_89_" d="M13.618,97.019h6.089V92.2h-6.089V97.019z M178.857,94.478h-1.378"/>
		</defs>
		<clipPath id="XMLID_108_">
			<use xlink:href="#XMLID_89_" />
		</clipPath>
		<polyline clip-path="url(#XMLID_108_)" points="14.818,94.574 17.408,94.574 17.408,94.918 14.818,94.918 14.818,94.574 		"/>
	</g>
	
		<line fill="none" stroke="#000000" stroke-width="0.1723" stroke-linejoin="round" stroke-miterlimit="10" x1="24.99" y1="81.242" x2="26.369" y2="81.242"/>
	
		<line fill="none" stroke="#000000" stroke-width="0.1723" stroke-linejoin="round" stroke-miterlimit="10" x1="178.857" y1="81.242" x2="177.479" y2="81.242"/>
	<path d="M18.894,79.679c0.336,0,0.591,0.137,0.774,0.4c0.177,0.27,0.269,0.658,0.269,1.163c0,0.508-0.092,0.897-0.269,1.162
		c-0.184,0.265-0.438,0.397-0.774,0.397c-0.339,0-0.6-0.133-0.777-0.397s-0.266-0.654-0.266-1.162c0-0.505,0.088-0.894,0.266-1.163
		C18.294,79.815,18.555,79.679,18.894,79.679 M18.894,80.001c-0.212,0-0.367,0.104-0.477,0.31c-0.107,0.208-0.155,0.518-0.155,0.932
		c0,0.413,0.048,0.724,0.155,0.931c0.109,0.207,0.265,0.311,0.477,0.311c0.211,0,0.368-0.104,0.476-0.311
		c0.104-0.207,0.157-0.518,0.157-0.931c0-0.414-0.054-0.724-0.157-0.932C19.262,80.104,19.105,80.001,18.894,80.001"/>
	<polyline points="20.652,82.235 21.079,82.235 21.079,82.747 20.652,82.747 20.652,82.235 	"/>
	<path d="M22.839,79.679c0.335,0,0.593,0.137,0.774,0.4c0.177,0.27,0.27,0.658,0.27,1.163c0,0.508-0.093,0.897-0.27,1.162
		c-0.182,0.265-0.439,0.397-0.774,0.397c-0.34,0-0.599-0.133-0.777-0.397c-0.177-0.265-0.264-0.654-0.264-1.162
		c0-0.505,0.087-0.894,0.264-1.163C22.241,79.815,22.5,79.679,22.839,79.679 M22.839,80.001c-0.21,0-0.368,0.104-0.475,0.31
		c-0.108,0.208-0.158,0.518-0.158,0.932c0,0.413,0.05,0.724,0.158,0.931c0.106,0.207,0.265,0.311,0.475,0.311
		c0.211,0,0.369-0.104,0.477-0.311c0.103-0.207,0.157-0.518,0.157-0.931c0-0.414-0.055-0.724-0.157-0.932
		C23.208,80.104,23.05,80.001,22.839,80.001"/>
	
		<line fill="none" stroke="#000000" stroke-width="0.1723" stroke-linejoin="round" stroke-miterlimit="10" x1="24.99" y1="68.006" x2="26.369" y2="68.006"/>
	
		<line fill="none" stroke="#000000" stroke-width="0.1723" stroke-linejoin="round" stroke-miterlimit="10" x1="178.857" y1="68.006" x2="177.479" y2="68.006"/>
	<path d="M19.002,66.443c0.334,0,0.591,0.136,0.772,0.4c0.178,0.269,0.269,0.657,0.269,1.162c0,0.509-0.091,0.897-0.269,1.163
		c-0.182,0.264-0.438,0.396-0.772,0.396c-0.34,0-0.601-0.132-0.779-0.396c-0.177-0.266-0.264-0.654-0.264-1.163
		c0-0.505,0.087-0.894,0.264-1.162C18.402,66.58,18.663,66.443,19.002,66.443 M19.002,66.765c-0.212,0-0.369,0.103-0.476,0.311
		c-0.107,0.206-0.157,0.517-0.157,0.93c0,0.414,0.05,0.724,0.157,0.93c0.106,0.208,0.264,0.312,0.476,0.312
		c0.21,0,0.367-0.104,0.476-0.312c0.102-0.207,0.157-0.517,0.157-0.93c0-0.413-0.056-0.724-0.157-0.93
		C19.37,66.868,19.212,66.765,19.002,66.765"/>
	<polyline points="20.759,68.999 21.187,68.999 21.187,69.511 20.759,69.511 20.759,68.999 	"/>
	<polyline points="22.146,69.169 22.811,69.169 22.811,66.868 22.086,67.013 22.086,66.642 22.807,66.496 23.217,66.496 
		23.217,69.169 23.883,69.169 23.883,69.511 22.146,69.511 22.146,69.169 	"/>
	
		<line fill="none" stroke="#000000" stroke-width="0.1723" stroke-linejoin="round" stroke-miterlimit="10" x1="24.99" y1="54.77" x2="26.369" y2="54.77"/>
	
		<line fill="none" stroke="#000000" stroke-width="0.1723" stroke-linejoin="round" stroke-miterlimit="10" x1="178.857" y1="54.77" x2="177.479" y2="54.77"/>
	<path d="M19.036,53.207c0.333,0,0.59,0.137,0.771,0.401c0.178,0.269,0.269,0.658,0.269,1.162c0,0.509-0.091,0.897-0.269,1.163
		c-0.182,0.265-0.438,0.397-0.771,0.397c-0.342,0-0.601-0.132-0.779-0.397c-0.178-0.265-0.265-0.653-0.265-1.163
		c0-0.504,0.087-0.893,0.265-1.162C18.435,53.344,18.694,53.207,19.036,53.207 M19.036,53.529c-0.213,0-0.37,0.104-0.477,0.311
		c-0.107,0.206-0.157,0.517-0.157,0.93s0.05,0.724,0.157,0.931c0.106,0.207,0.264,0.31,0.477,0.31c0.209,0,0.366-0.103,0.475-0.31
		c0.103-0.208,0.157-0.518,0.157-0.931s-0.055-0.724-0.157-0.93C19.402,53.633,19.245,53.529,19.036,53.529"/>
	<polyline points="20.792,55.764 21.218,55.764 21.218,56.276 20.792,56.276 20.792,55.764 	"/>
	<path d="M22.458,55.933h1.423v0.343h-1.915v-0.343c0.153-0.157,0.364-0.373,0.633-0.645c0.265-0.269,0.435-0.442,0.506-0.521
		c0.131-0.145,0.223-0.269,0.273-0.373c0.048-0.099,0.077-0.202,0.077-0.302c0-0.157-0.058-0.289-0.169-0.389
		c-0.112-0.1-0.257-0.153-0.439-0.153c-0.129,0-0.264,0.025-0.404,0.066c-0.142,0.046-0.294,0.112-0.455,0.203v-0.414
		c0.164-0.066,0.318-0.116,0.458-0.148c0.142-0.034,0.272-0.05,0.393-0.05c0.311,0,0.56,0.079,0.745,0.236
		c0.188,0.157,0.282,0.364,0.282,0.625c0,0.124-0.025,0.243-0.07,0.351c-0.047,0.112-0.129,0.244-0.253,0.393
		c-0.034,0.042-0.142,0.153-0.322,0.339C23.037,55.336,22.784,55.598,22.458,55.933"/>
	
		<line fill="none" stroke="#000000" stroke-width="0.1723" stroke-linejoin="round" stroke-miterlimit="10" x1="24.99" y1="41.535" x2="26.369" y2="41.535"/>
	
		<line fill="none" stroke="#000000" stroke-width="0.1723" stroke-linejoin="round" stroke-miterlimit="10" x1="178.857" y1="41.535" x2="177.479" y2="41.535"/>
	<path d="M18.954,39.971c0.335,0,0.592,0.136,0.772,0.401c0.179,0.269,0.269,0.658,0.269,1.162c0,0.509-0.09,0.898-0.269,1.163
		c-0.181,0.265-0.438,0.397-0.772,0.397c-0.34,0-0.6-0.132-0.778-0.397c-0.178-0.265-0.264-0.653-0.264-1.163
		c0-0.504,0.086-0.893,0.264-1.162C18.354,40.107,18.614,39.971,18.954,39.971 M18.954,40.293c-0.211,0-0.369,0.104-0.477,0.31
		c-0.106,0.207-0.156,0.517-0.156,0.93c0,0.415,0.05,0.725,0.156,0.931c0.107,0.207,0.266,0.311,0.477,0.311
		s0.368-0.104,0.476-0.311c0.104-0.207,0.156-0.517,0.156-0.931c0-0.413-0.053-0.724-0.156-0.93
		C19.322,40.397,19.165,40.293,18.954,40.293"/>
	<polyline points="20.709,42.528 21.136,42.528 21.136,43.039 20.709,43.039 20.709,42.528 	"/>
	<path d="M23.263,41.414c0.194,0.042,0.348,0.128,0.455,0.261s0.165,0.298,0.165,0.488c0,0.298-0.104,0.53-0.307,0.691
		c-0.206,0.161-0.496,0.24-0.873,0.24c-0.127,0-0.26-0.012-0.391-0.037c-0.134-0.021-0.273-0.058-0.416-0.108v-0.393
		c0.114,0.067,0.237,0.116,0.374,0.148c0.132,0.034,0.271,0.05,0.422,0.05c0.257,0,0.45-0.05,0.582-0.148
		c0.134-0.1,0.203-0.249,0.203-0.443c0-0.173-0.062-0.314-0.187-0.413c-0.123-0.1-0.297-0.154-0.521-0.154h-0.353v-0.335h0.368
		c0.199,0,0.353-0.038,0.459-0.12c0.107-0.079,0.163-0.194,0.163-0.348c0-0.153-0.059-0.273-0.167-0.355
		c-0.111-0.083-0.269-0.125-0.471-0.125c-0.112,0-0.231,0.013-0.36,0.038c-0.127,0.025-0.269,0.062-0.421,0.111v-0.364
		c0.152-0.041,0.298-0.074,0.434-0.095c0.132-0.021,0.262-0.033,0.385-0.033c0.306,0,0.551,0.071,0.732,0.211
		c0.182,0.14,0.272,0.33,0.272,0.571c0,0.165-0.05,0.305-0.145,0.422C23.573,41.291,23.437,41.373,23.263,41.414"/>
	
		<line fill="none" stroke="#000000" stroke-width="0.1723" stroke-linejoin="round" stroke-miterlimit="10" x1="24.99" y1="28.298" x2="26.369" y2="28.298"/>
	
		<line fill="none" stroke="#000000" stroke-width="0.1723" stroke-linejoin="round" stroke-miterlimit="10" x1="178.857" y1="28.298" x2="177.479" y2="28.298"/>
	<path d="M18.851,26.735c0.335,0,0.591,0.136,0.774,0.402c0.177,0.268,0.269,0.657,0.269,1.162c0,0.509-0.092,0.897-0.269,1.163
		c-0.184,0.264-0.439,0.397-0.774,0.397c-0.34,0-0.601-0.133-0.777-0.397c-0.177-0.265-0.266-0.653-0.266-1.163
		c0-0.505,0.089-0.894,0.266-1.162C18.25,26.871,18.511,26.735,18.851,26.735 M18.851,27.058c-0.211,0-0.368,0.104-0.477,0.311
		c-0.107,0.206-0.156,0.517-0.156,0.93s0.049,0.724,0.156,0.931c0.108,0.207,0.266,0.31,0.477,0.31c0.209,0,0.367-0.103,0.475-0.31
		c0.104-0.207,0.158-0.518,0.158-0.931s-0.054-0.724-0.158-0.93C19.218,27.162,19.06,27.058,18.851,27.058"/>
	<polyline points="20.609,29.291 21.036,29.291 21.036,29.804 20.609,29.804 20.609,29.291 	"/>
	<path d="M22.938,26.789h0.512v1.965h0.431v0.339H23.45v0.711h-0.404v-0.711h-1.362v-0.393L22.938,26.789 M23.045,27.145
		l-1.03,1.609h1.03V27.145"/>
	
		<line fill="none" stroke="#000000" stroke-width="0.1723" stroke-linejoin="round" stroke-miterlimit="10" x1="24.99" y1="15.063" x2="26.369" y2="15.063"/>
	
		<line fill="none" stroke="#000000" stroke-width="0.1723" stroke-linejoin="round" stroke-miterlimit="10" x1="178.857" y1="15.063" x2="177.479" y2="15.063"/>
	<path d="M18.98,13.5c0.335,0,0.593,0.136,0.773,0.4c0.178,0.27,0.269,0.658,0.269,1.163c0,0.508-0.091,0.897-0.269,1.162
		c-0.181,0.264-0.438,0.397-0.773,0.397c-0.339,0-0.6-0.133-0.778-0.397c-0.177-0.265-0.264-0.654-0.264-1.162
		c0-0.505,0.087-0.894,0.264-1.163C18.38,13.635,18.641,13.5,18.98,13.5 M18.98,13.822c-0.21,0-0.368,0.103-0.476,0.31
		s-0.157,0.518-0.157,0.931c0,0.413,0.05,0.723,0.157,0.931c0.107,0.206,0.266,0.31,0.476,0.31s0.368-0.104,0.476-0.31
		c0.104-0.208,0.157-0.518,0.157-0.931c0-0.414-0.053-0.724-0.157-0.931C19.348,13.925,19.19,13.822,18.98,13.822"/>
	<polyline points="20.738,16.055 21.164,16.055 21.164,16.568 20.738,16.568 20.738,16.055 	"/>
	<path d="M22.057,13.553h1.601v0.343H22.43v0.74c0.058-0.02,0.12-0.037,0.178-0.045c0.057-0.009,0.12-0.017,0.176-0.017
		c0.337,0,0.602,0.095,0.8,0.277c0.198,0.186,0.298,0.434,0.298,0.75c0,0.326-0.104,0.579-0.307,0.756
		c-0.203,0.178-0.486,0.266-0.851,0.266c-0.13,0-0.259-0.013-0.39-0.029c-0.132-0.021-0.266-0.05-0.406-0.095v-0.41
		c0.12,0.066,0.245,0.116,0.378,0.149c0.127,0.034,0.264,0.045,0.409,0.045c0.231,0,0.417-0.057,0.554-0.182
		c0.132-0.124,0.203-0.289,0.203-0.5c0-0.207-0.071-0.373-0.203-0.497c-0.137-0.124-0.322-0.186-0.554-0.186
		c-0.107,0-0.22,0.012-0.327,0.037c-0.106,0.025-0.219,0.062-0.331,0.112V13.553"/>
	<path d="M8.628,98.876v-1.043c0-0.311,0.065-0.551,0.194-0.721c0.132-0.165,0.314-0.252,0.551-0.252
		c0.185,0,0.334,0.045,0.442,0.133c0.107,0.086,0.178,0.209,0.202,0.375c0.045-0.198,0.136-0.354,0.273-0.467
		c0.136-0.107,0.306-0.166,0.508-0.166c0.272,0,0.479,0.097,0.625,0.278c0.149,0.181,0.219,0.442,0.219,0.777v1.085H8.628
		 M8.963,98.466h0.909V97.86c0-0.198-0.037-0.343-0.111-0.44c-0.073-0.101-0.187-0.149-0.343-0.149
		c-0.149,0-0.265,0.049-0.339,0.149c-0.075,0.098-0.116,0.242-0.116,0.44V98.466 M10.205,98.466h1.104v-0.654
		c0-0.219-0.045-0.381-0.137-0.488c-0.09-0.104-0.227-0.156-0.417-0.156c-0.187,0-0.321,0.053-0.413,0.156
		c-0.092,0.107-0.137,0.27-0.137,0.488V98.466"/>
	<path d="M8.574,94.813c0-0.422,0.145-0.758,0.427-1.014c0.281-0.252,0.662-0.38,1.138-0.38c0.479,0,0.857,0.128,1.138,0.38
		c0.281,0.256,0.421,0.592,0.421,1.014c0,0.426-0.14,0.764-0.421,1.018c-0.28,0.256-0.659,0.38-1.138,0.38
		c-0.476,0-0.856-0.124-1.138-0.38C8.718,95.577,8.574,95.239,8.574,94.813 M8.906,94.813c0,0.297,0.11,0.533,0.329,0.707
		c0.225,0.174,0.522,0.26,0.903,0.26c0.38,0,0.683-0.086,0.902-0.26c0.223-0.174,0.331-0.41,0.331-0.707
		c0-0.294-0.108-0.529-0.331-0.703c-0.22-0.174-0.522-0.261-0.902-0.261c-0.381,0-0.679,0.087-0.903,0.261
		C9.016,94.284,8.906,94.52,8.906,94.813"/>
	<polyline points="8.628,92.781 8.628,92.372 11.299,92.372 11.299,90.903 11.643,90.903 11.643,92.781 8.628,92.781 	"/>
	<path d="M8.628,90.478v-0.84c0-0.582,0.123-1.013,0.363-1.286c0.243-0.272,0.625-0.409,1.142-0.409
		c0.521,0,0.903,0.141,1.146,0.413c0.244,0.274,0.364,0.704,0.364,1.282v0.84H8.628 M8.963,90.069h2.345v-0.493
		c0-0.413-0.092-0.72-0.281-0.914c-0.189-0.19-0.487-0.29-0.894-0.29c-0.405,0-0.698,0.1-0.889,0.29
		c-0.187,0.194-0.281,0.501-0.281,0.914V90.069"/>
	<path d="M8.504,85.101c0.314,0.183,0.62,0.314,0.922,0.401c0.302,0.091,0.607,0.133,0.919,0.133c0.314,0,0.619-0.042,0.922-0.133
		c0.307-0.087,0.608-0.219,0.918-0.401v0.323c-0.317,0.202-0.624,0.356-0.931,0.455s-0.607,0.148-0.909,0.148
		c-0.298,0-0.601-0.05-0.906-0.148s-0.616-0.249-0.935-0.455V85.101"/>
	<path d="M8.832,83.847c0,0.117,0.053,0.207,0.153,0.273c0.098,0.066,0.234,0.1,0.408,0.1c0.182,0,0.318-0.033,0.417-0.1
		c0.102-0.066,0.149-0.156,0.149-0.273c0-0.115-0.048-0.21-0.149-0.275c-0.099-0.066-0.235-0.1-0.417-0.1
		c-0.174,0-0.311,0.037-0.408,0.104C8.884,83.641,8.832,83.731,8.832,83.847 M8.574,83.847c0-0.21,0.076-0.381,0.224-0.507
		c0.149-0.125,0.348-0.19,0.596-0.19c0.256,0,0.455,0.065,0.604,0.19c0.147,0.123,0.219,0.293,0.219,0.507
		c0,0.216-0.071,0.387-0.219,0.51c-0.149,0.125-0.349,0.187-0.604,0.187c-0.248,0-0.446-0.062-0.596-0.187
		C8.65,84.233,8.574,84.062,8.574,83.847 M8.574,82.024V81.7l3.123,1.887v0.323L8.574,82.024 M10.059,81.763
		c0-0.21,0.074-0.38,0.223-0.504c0.151-0.125,0.353-0.189,0.601-0.189c0.252,0,0.452,0.064,0.596,0.189
		c0.149,0.124,0.219,0.294,0.219,0.504c0,0.215-0.069,0.389-0.219,0.514c-0.144,0.123-0.344,0.186-0.596,0.186
		c-0.253,0-0.449-0.062-0.601-0.186C10.133,82.151,10.059,81.978,10.059,81.763 M10.316,81.763c0,0.117,0.05,0.211,0.149,0.277
		c0.098,0.066,0.239,0.1,0.417,0.1c0.174,0,0.314-0.033,0.414-0.1c0.098-0.066,0.147-0.16,0.147-0.277
		c0-0.115-0.05-0.207-0.147-0.273c-0.1-0.065-0.24-0.099-0.414-0.099s-0.314,0.033-0.414,0.099
		C10.37,81.556,10.316,81.647,10.316,81.763"/>
	<path d="M9.447,77.692h0.353c-0.05,0.109-0.092,0.217-0.121,0.328c-0.024,0.115-0.042,0.23-0.042,0.352
		c0,0.186,0.03,0.326,0.089,0.416c0.056,0.093,0.14,0.138,0.253,0.138c0.085,0,0.151-0.033,0.202-0.099
		c0.05-0.066,0.099-0.199,0.141-0.398l0.027-0.128c0.059-0.265,0.142-0.45,0.24-0.562c0.104-0.107,0.249-0.166,0.431-0.166
		c0.211,0,0.375,0.082,0.495,0.248c0.126,0.166,0.183,0.396,0.183,0.688c0,0.123-0.012,0.247-0.032,0.38
		c-0.021,0.132-0.054,0.269-0.104,0.413h-0.385c0.074-0.137,0.129-0.272,0.16-0.404c0.038-0.133,0.055-0.266,0.055-0.398
		c0-0.174-0.029-0.31-0.086-0.405c-0.06-0.091-0.145-0.14-0.258-0.14c-0.1,0-0.178,0.037-0.231,0.104
		c-0.055,0.064-0.107,0.215-0.156,0.446l-0.03,0.128c-0.049,0.232-0.123,0.401-0.223,0.501c-0.1,0.103-0.235,0.153-0.413,0.153
		c-0.213,0-0.377-0.075-0.492-0.225c-0.116-0.148-0.175-0.363-0.175-0.645c0-0.137,0.014-0.266,0.034-0.389
		C9.381,77.909,9.41,77.796,9.447,77.692"/>
	<path d="M8.5,76.981V76.61h0.471v0.371H8.5 M9.381,76.981V76.61h2.262v0.371H9.381"/>
	<path d="M11.362,73.971c0.38,0,0.666,0.086,0.856,0.256c0.187,0.173,0.282,0.435,0.282,0.786c0,0.133-0.014,0.252-0.029,0.368
		c-0.021,0.116-0.051,0.231-0.091,0.34h-0.36c0.058-0.108,0.1-0.216,0.129-0.323c0.029-0.106,0.045-0.215,0.045-0.326
		c0-0.24-0.066-0.422-0.19-0.546c-0.128-0.12-0.318-0.182-0.575-0.182h-0.183c0.133,0.079,0.232,0.178,0.299,0.298
		s0.099,0.261,0.099,0.426c0,0.282-0.103,0.505-0.313,0.675c-0.211,0.169-0.492,0.252-0.844,0.252c-0.348,0-0.629-0.083-0.84-0.252
		c-0.211-0.17-0.319-0.393-0.319-0.675c0-0.165,0.034-0.306,0.1-0.426c0.066-0.12,0.166-0.219,0.299-0.298H9.381v-0.372H11.362
		 M10.486,74.343c-0.266,0-0.477,0.058-0.626,0.166c-0.148,0.111-0.224,0.269-0.224,0.467c0,0.199,0.075,0.355,0.224,0.467
		c0.149,0.113,0.36,0.166,0.626,0.166c0.269,0,0.476-0.053,0.624-0.166c0.149-0.111,0.225-0.268,0.225-0.467
		c0-0.198-0.075-0.356-0.225-0.467C10.961,74.4,10.754,74.343,10.486,74.343"/>
	<path d="M10.279,71.323h1.364v0.373h-1.352c-0.216,0-0.373,0.045-0.481,0.128c-0.106,0.083-0.161,0.207-0.161,0.373
		c0,0.203,0.066,0.361,0.195,0.476c0.129,0.116,0.301,0.174,0.521,0.174h1.277v0.372H9.381v-0.372h0.35
		c-0.13-0.087-0.233-0.191-0.301-0.314c-0.066-0.121-0.104-0.261-0.104-0.418c0-0.257,0.083-0.456,0.244-0.587
		C9.731,71.394,9.968,71.323,10.279,71.323"/>
	<path d="M10.353,68.813h1.29v0.372h-0.344c0.142,0.087,0.241,0.194,0.303,0.318c0.062,0.125,0.095,0.281,0.095,0.462
		c0,0.233-0.062,0.418-0.19,0.556c-0.128,0.136-0.302,0.202-0.52,0.202c-0.253,0-0.443-0.083-0.576-0.256
		c-0.129-0.17-0.194-0.422-0.194-0.762v-0.521H10.18c-0.171,0-0.303,0.058-0.399,0.17c-0.09,0.111-0.139,0.268-0.139,0.471
		c0,0.132,0.017,0.256,0.049,0.381c0.034,0.123,0.079,0.24,0.138,0.351H9.485c-0.05-0.132-0.092-0.264-0.117-0.393
		c-0.024-0.127-0.041-0.251-0.041-0.376c0-0.326,0.088-0.571,0.256-0.732C9.753,68.895,10.009,68.813,10.353,68.813 M10.506,69.553
		c0,0.302,0.037,0.509,0.104,0.625c0.07,0.116,0.186,0.173,0.352,0.173c0.132,0,0.239-0.042,0.314-0.129
		c0.078-0.087,0.115-0.207,0.115-0.355c0-0.207-0.07-0.372-0.22-0.497c-0.145-0.124-0.338-0.186-0.583-0.186h-0.082V69.553"/>
	<polyline points="8.5,68.048 8.5,67.675 11.643,67.675 11.643,68.048 8.5,68.048 	"/>
	<path d="M9.468,63.953h0.348c-0.059,0.107-0.101,0.21-0.128,0.317c-0.029,0.108-0.046,0.211-0.046,0.319
		c0,0.24,0.079,0.43,0.23,0.563c0.153,0.131,0.367,0.198,0.643,0.198s0.492-0.067,0.646-0.198c0.151-0.133,0.227-0.323,0.227-0.563
		c0-0.108-0.013-0.211-0.041-0.319c-0.029-0.107-0.074-0.21-0.133-0.317h0.344c0.05,0.107,0.086,0.214,0.107,0.322
		c0.021,0.111,0.032,0.231,0.032,0.356c0,0.338-0.104,0.611-0.318,0.811c-0.21,0.203-0.5,0.302-0.863,0.302
		c-0.37,0-0.658-0.099-0.869-0.302c-0.211-0.204-0.319-0.48-0.319-0.835c0-0.116,0.014-0.228,0.037-0.336
		C9.389,64.163,9.422,64.056,9.468,63.953"/>
	<path d="M10.279,61.425h1.364v0.373h-1.352c-0.216,0-0.373,0.046-0.481,0.127c-0.106,0.083-0.161,0.207-0.161,0.373
		c0,0.203,0.066,0.36,0.195,0.476s0.301,0.174,0.521,0.174h1.277v0.372H8.5v-0.372h1.23c-0.13-0.087-0.233-0.191-0.301-0.314
		c-0.066-0.121-0.104-0.261-0.104-0.418c0-0.257,0.083-0.455,0.244-0.587C9.731,61.496,9.968,61.425,10.279,61.425"/>
	<path d="M10.353,58.915h1.29v0.372h-0.344c0.142,0.087,0.241,0.195,0.303,0.319c0.062,0.124,0.095,0.281,0.095,0.463
		c0,0.232-0.062,0.417-0.19,0.554c-0.128,0.137-0.302,0.202-0.52,0.202c-0.253,0-0.443-0.082-0.576-0.256
		c-0.129-0.17-0.194-0.422-0.194-0.761v-0.521H10.18c-0.171,0-0.303,0.058-0.399,0.17c-0.09,0.112-0.139,0.269-0.139,0.472
		c0,0.132,0.017,0.256,0.049,0.38c0.034,0.124,0.079,0.24,0.138,0.351H9.485c-0.05-0.131-0.092-0.264-0.117-0.392
		c-0.024-0.128-0.041-0.253-0.041-0.377c0-0.326,0.088-0.571,0.256-0.732C9.753,58.997,10.009,58.915,10.353,58.915 M10.506,59.655
		c0,0.302,0.037,0.509,0.104,0.624c0.07,0.117,0.186,0.174,0.352,0.174c0.132,0,0.239-0.041,0.314-0.128
		c0.078-0.087,0.115-0.208,0.115-0.356c0-0.207-0.07-0.372-0.22-0.496c-0.145-0.124-0.338-0.186-0.583-0.186h-0.082V59.655"/>
	<path d="M10.279,56.268h1.364v0.372h-1.352c-0.216,0-0.373,0.046-0.481,0.128c-0.106,0.083-0.161,0.207-0.161,0.373
		c0,0.203,0.066,0.359,0.195,0.475s0.301,0.174,0.521,0.174h1.277v0.372H9.381V57.79h0.35c-0.13-0.087-0.233-0.19-0.301-0.314
		c-0.066-0.12-0.104-0.261-0.104-0.417c0-0.257,0.083-0.455,0.244-0.588C9.731,56.338,9.968,56.268,10.279,56.268"/>
	<path d="M11.362,53.666c0.38,0,0.666,0.087,0.856,0.256c0.187,0.174,0.282,0.434,0.282,0.786c0,0.133-0.014,0.252-0.029,0.368
		c-0.021,0.116-0.051,0.232-0.091,0.339h-0.36c0.058-0.107,0.1-0.214,0.129-0.322c0.029-0.107,0.045-0.215,0.045-0.327
		c0-0.24-0.066-0.422-0.19-0.546c-0.128-0.12-0.318-0.182-0.575-0.182h-0.183c0.133,0.078,0.232,0.178,0.299,0.298
		c0.066,0.12,0.099,0.261,0.099,0.426c0,0.281-0.103,0.503-0.313,0.674c-0.211,0.169-0.492,0.251-0.844,0.251
		c-0.348,0-0.629-0.083-0.84-0.251c-0.211-0.171-0.319-0.393-0.319-0.674c0-0.165,0.034-0.306,0.1-0.426
		c0.066-0.12,0.166-0.22,0.299-0.298H9.381v-0.372H11.362 M10.486,54.038c-0.266,0-0.477,0.058-0.626,0.166
		c-0.148,0.112-0.224,0.269-0.224,0.468c0,0.198,0.075,0.355,0.224,0.467c0.149,0.112,0.36,0.166,0.626,0.166
		c0.269,0,0.476-0.054,0.624-0.166c0.149-0.112,0.225-0.269,0.225-0.467c0-0.199-0.075-0.356-0.225-0.468
		C10.961,54.096,10.754,54.038,10.486,54.038"/>
	<path d="M10.312,51.337c-0.204,0.005-0.363,0.062-0.488,0.17c-0.12,0.112-0.182,0.261-0.182,0.442c0,0.208,0.062,0.373,0.178,0.497
		c0.115,0.124,0.281,0.198,0.492,0.215V51.337 M10.42,50.965h0.18v1.708c0.257-0.016,0.456-0.09,0.588-0.231
		c0.133-0.137,0.199-0.328,0.199-0.575c0-0.141-0.016-0.281-0.051-0.414c-0.031-0.132-0.086-0.27-0.16-0.401h0.352
		c0.058,0.132,0.103,0.269,0.129,0.41c0.023,0.141,0.04,0.285,0.04,0.426c0,0.364-0.104,0.649-0.31,0.861
		c-0.207,0.211-0.492,0.313-0.853,0.313c-0.367,0-0.662-0.099-0.881-0.298c-0.215-0.198-0.327-0.47-0.327-0.81
		c0-0.306,0.1-0.546,0.294-0.724C9.82,51.056,10.085,50.965,10.42,50.965"/>
	<path d="M8.504,50.415v-0.323c0.318-0.198,0.629-0.351,0.935-0.451c0.306-0.099,0.608-0.153,0.906-0.153
		c0.302,0,0.603,0.054,0.909,0.153c0.307,0.1,0.613,0.252,0.931,0.451v0.323c-0.31-0.178-0.611-0.311-0.918-0.401
		c-0.303-0.087-0.607-0.132-0.922-0.132c-0.312,0-0.617,0.045-0.919,0.132C9.125,50.104,8.819,50.237,8.504,50.415"/>
	
		<line fill="none" stroke="#000000" stroke-width="0.3447" stroke-linecap="square" stroke-linejoin="round" stroke-miterlimit="10" x1="24.99" y1="15.063" x2="178.857" y2="15.063"/>
	
		<line fill="none" stroke="#000000" stroke-width="0.3447" stroke-linecap="square" stroke-linejoin="round" stroke-miterlimit="10" x1="178.857" y1="134.185" x2="178.857" y2="15.063"/>
	
		<line fill="none" stroke="#000000" stroke-width="0.3447" stroke-linecap="square" stroke-linejoin="round" stroke-miterlimit="10" x1="24.99" y1="134.185" x2="178.857" y2="134.185"/>
	
		<line fill="none" stroke="#000000" stroke-width="0.3447" stroke-linecap="square" stroke-linejoin="round" stroke-miterlimit="10" x1="24.99" y1="134.185" x2="24.99" y2="15.063"/>
</g>
</svg>
