<?xml version="1.0" encoding="utf-8"?>
<!-- Generator: Adobe Illustrator 15.0.2, SVG Export Plug-In . SVG Version: 6.00 Build 0)  -->
<!DOCTYPE svg PUBLIC "-//W3C//DTD SVG 1.1//EN" "http://www.w3.org/Graphics/SVG/1.1/DTD/svg11.dtd">
<svg version="1.1" id="Ebene_1" xmlns="http://www.w3.org/2000/svg" xmlns:xlink="http://www.w3.org/1999/xlink" x="0px" y="0px"
	 width="48.667px" height="46.167px" viewBox="0 0 48.667 46.167" enable-background="new 0 0 48.667 46.167" xml:space="preserve">
<g>
	<defs>
		<filter id="Adobe_OpacityMaskFilter" filterUnits="userSpaceOnUse" x="9.177" y="1.73" width="31.881" height="43.673">
			<feColorMatrix  type="matrix" values="1 0 0 0 0  0 1 0 0 0  0 0 1 0 0  0 0 0 1 0"/>
		</filter>
	</defs>
	<mask maskUnits="userSpaceOnUse" x="9.177" y="1.73" width="31.881" height="43.673" id="SVGID_1_">
		<g filter="url(#Adobe_OpacityMaskFilter)">
			<linearGradient id="SVGID_2_" gradientUnits="userSpaceOnUse" x1="24.751" y1="45.9932" x2="24.751" y2="2.1235">
				<stop  offset="0.0056" style="stop-color:#000000"/>
				<stop  offset="0.0399" style="stop-color:#161616"/>
				<stop  offset="0.1164" style="stop-color:#424242"/>
				<stop  offset="0.1963" style="stop-color:#686868"/>
				<stop  offset="0.2788" style="stop-color:#878787"/>
				<stop  offset="0.365" style="stop-color:#9F9F9F"/>
				<stop  offset="0.4561" style="stop-color:#AFAFAF"/>
				<stop  offset="0.5558" style="stop-color:#BABABA"/>
				<stop  offset="0.6798" style="stop-color:#BDBDBD"/>
				<stop  offset="0.7615" style="stop-color:#BABABA"/>
				<stop  offset="0.8095" style="stop-color:#B2B2B2"/>
				<stop  offset="0.8489" style="stop-color:#A4A4A4"/>
				<stop  offset="0.8835" style="stop-color:#909090"/>
				<stop  offset="0.9151" style="stop-color:#767676"/>
				<stop  offset="0.9444" style="stop-color:#565656"/>
				<stop  offset="0.972" style="stop-color:#303030"/>
				<stop  offset="0.9975" style="stop-color:#050505"/>
				<stop  offset="1" style="stop-color:#000000"/>
			</linearGradient>
			<rect x="7.298" y="2.123" fill="url(#SVGID_2_)" width="34.905" height="43.87"/>
		</g>
	</mask>
	<g opacity="0.75" mask="url(#SVGID_1_)">
		<g>
			<g>
				<path fill="none" stroke="#2B2171" stroke-width="0.5" d="M34.928,15.816c0,0.39-0.319,0.708-0.709,0.708H14.302
					c-0.39,0-0.708-0.319-0.708-0.708V4.042c0-0.39,0.319-0.708,0.708-0.708h19.917c0.39,0,0.709,0.319,0.709,0.708V15.816z"/>
			</g>
			<g>
				<g>
					<g>
						<path fill="#23175A" d="M33.875,7.629c0,0.39-0.319,0.708-0.709,0.708H18.894c-0.39,0-0.708-0.319-0.708-0.708V7.258
							c0-0.39,0.319-0.708,0.708-0.708h14.273c0.39,0,0.709,0.319,0.709,0.708V7.629z"/>
					</g>
					<g>
						<path fill="#23175A" d="M33.875,10.131c0,0.39-0.319,0.708-0.709,0.708H18.894c-0.39,0-0.708-0.319-0.708-0.708v-0.37
							c0-0.39,0.319-0.708,0.708-0.708h14.273c0.39,0,0.709,0.319,0.709,0.708V10.131z"/>
					</g>
					<g>
						<path fill="#23175A" d="M33.875,5.127c0,0.39-0.319,0.708-0.709,0.708H18.894c-0.39,0-0.708-0.319-0.708-0.708V4.757
							c0-0.39,0.319-0.708,0.708-0.708h14.273c0.39,0,0.709,0.319,0.709,0.708V5.127z"/>
					</g>
					<g>
						<path fill="#23175A" d="M33.875,15.135c0,0.39-0.319,0.708-0.709,0.708H18.894c-0.39,0-0.708-0.319-0.708-0.708v-0.37
							c0-0.39,0.319-0.708,0.708-0.708h14.273c0.39,0,0.709,0.319,0.709,0.708V15.135z"/>
					</g>
					<g>
						<path fill="#23175A" d="M33.875,12.633c0,0.39-0.319,0.708-0.709,0.708H18.894c-0.39,0-0.708-0.319-0.708-0.708v-0.37
							c0-0.39,0.319-0.708,0.708-0.708h14.273c0.39,0,0.709,0.319,0.709,0.708V12.633z"/>
					</g>
				</g>
				<g>
					<g>
						<path fill="#23175A" d="M17.037,7.629c0,0.39-0.319,0.708-0.708,0.708h-0.495c-0.39,0-0.708-0.319-0.708-0.708V7.258
							c0-0.39,0.319-0.708,0.708-0.708h0.495c0.39,0,0.708,0.319,0.708,0.708V7.629z"/>
					</g>
					<g>
						<path fill="#23175A" d="M17.037,10.131c0,0.39-0.319,0.708-0.708,0.708h-0.495c-0.39,0-0.708-0.319-0.708-0.708v-0.37
							c0-0.39,0.319-0.708,0.708-0.708h0.495c0.39,0,0.708,0.319,0.708,0.708V10.131z"/>
					</g>
					<g>
						<path fill="#23175A" d="M17.037,5.127c0,0.39-0.319,0.708-0.708,0.708h-0.495c-0.39,0-0.708-0.319-0.708-0.708V4.757
							c0-0.39,0.319-0.708,0.708-0.708h0.495c0.39,0,0.708,0.319,0.708,0.708V5.127z"/>
					</g>
					<g>
						<path fill="#23175A" d="M17.037,15.135c0,0.39-0.319,0.708-0.708,0.708h-0.495c-0.39,0-0.708-0.319-0.708-0.708v-0.37
							c0-0.39,0.319-0.708,0.708-0.708h0.495c0.39,0,0.708,0.319,0.708,0.708V15.135z"/>
					</g>
					<g>
						<path fill="#23175A" d="M17.037,12.633c0,0.39-0.319,0.708-0.708,0.708h-0.495c-0.39,0-0.708-0.319-0.708-0.708v-0.37
							c0-0.39,0.319-0.708,0.708-0.708h0.495c0.39,0,0.708,0.319,0.708,0.708V12.633z"/>
					</g>
				</g>
			</g>
		</g>
		<g>
			<g>
				<path fill="none" stroke="#2B2171" stroke-width="0.5" d="M40.808,30.287c0,0.39-0.319,0.709-0.709,0.709H20.183
					c-0.39,0-0.708-0.319-0.708-0.709V18.513c0-0.39,0.319-0.708,0.708-0.708h19.917c0.39,0,0.709,0.319,0.709,0.708V30.287z"/>
			</g>
		</g>
		<g>
			<g>
				<path fill="none" stroke="#2B2171" stroke-width="0.5" d="M35.041,44.229c0,0.39-0.319,0.709-0.709,0.709H14.415
					c-0.39,0-0.708-0.319-0.708-0.709V32.456c0-0.39,0.319-0.709,0.708-0.709h19.917c0.39,0,0.709,0.319,0.709,0.709V44.229z"/>
			</g>
		</g>
		<g>
			<line fill="none" stroke="#2B2171" stroke-linecap="round" x1="9.677" y1="2.23" x2="9.677" y2="44.903"/>
			<line fill="none" stroke="#2B2171" stroke-linecap="round" x1="9.677" y1="39.129" x2="13.296" y2="39.129"/>
			<line fill="none" stroke="#2B2171" stroke-linecap="round" x1="9.867" y1="9.131" x2="13.146" y2="9.131"/>
			<line fill="none" stroke="#2B2171" stroke-linecap="round" x1="16.462" y1="16.736" x2="16.462" y2="23.285"/>
			<line fill="none" stroke="#2B2171" stroke-linecap="round" x1="16.462" y1="23.285" x2="19.176" y2="23.285"/>
		</g>
		<g>
			<g>
				<path fill="#23175A" d="M39.375,22.129c0,0.39-0.319,0.708-0.709,0.708H24.394c-0.39,0-0.709-0.319-0.709-0.708v-0.371
					c0-0.39,0.319-0.708,0.709-0.708h14.272c0.39,0,0.709,0.319,0.709,0.708V22.129z"/>
			</g>
			<g>
				<path fill="#23175A" d="M39.375,24.631c0,0.39-0.319,0.709-0.709,0.709H24.394c-0.39,0-0.709-0.319-0.709-0.709v-0.37
					c0-0.39,0.319-0.708,0.709-0.708h14.272c0.39,0,0.709,0.319,0.709,0.708V24.631z"/>
			</g>
			<g>
				<path fill="#23175A" d="M39.375,19.627c0,0.39-0.319,0.708-0.709,0.708H24.394c-0.39,0-0.709-0.319-0.709-0.708v-0.371
					c0-0.39,0.319-0.708,0.709-0.708h14.272c0.39,0,0.709,0.319,0.709,0.708V19.627z"/>
			</g>
			<g>
				<path fill="#23175A" d="M39.375,29.635c0,0.39-0.319,0.709-0.709,0.709H24.394c-0.39,0-0.709-0.319-0.709-0.709v-0.369
					c0-0.39,0.319-0.709,0.709-0.709h14.272c0.39,0,0.709,0.319,0.709,0.709V29.635z"/>
			</g>
			<g>
				<path fill="#23175A" d="M39.375,27.133c0,0.39-0.319,0.709-0.709,0.709H24.394c-0.39,0-0.709-0.319-0.709-0.709v-0.369
					c0-0.39,0.319-0.709,0.709-0.709h14.272c0.39,0,0.709,0.319,0.709,0.709V27.133z"/>
			</g>
		</g>
		<g>
			<path fill="#23175A" d="M22.537,22.129c0,0.39-0.319,0.708-0.708,0.708h-0.495c-0.39,0-0.708-0.319-0.708-0.708v-0.371
				c0-0.39,0.319-0.708,0.708-0.708h0.495c0.39,0,0.708,0.319,0.708,0.708V22.129z"/>
		</g>
		<g>
			<path fill="#23175A" d="M22.537,24.631c0,0.39-0.319,0.709-0.708,0.709h-0.495c-0.39,0-0.708-0.319-0.708-0.709v-0.37
				c0-0.39,0.319-0.708,0.708-0.708h0.495c0.39,0,0.708,0.319,0.708,0.708V24.631z"/>
		</g>
		<g>
			<path fill="#23175A" d="M22.537,19.627c0,0.39-0.319,0.708-0.708,0.708h-0.495c-0.39,0-0.708-0.319-0.708-0.708v-0.371
				c0-0.39,0.319-0.708,0.708-0.708h0.495c0.39,0,0.708,0.319,0.708,0.708V19.627z"/>
		</g>
		<g>
			<path fill="#23175A" d="M22.537,29.635c0,0.39-0.319,0.709-0.708,0.709h-0.495c-0.39,0-0.708-0.319-0.708-0.709v-0.369
				c0-0.39,0.319-0.709,0.708-0.709h0.495c0.39,0,0.708,0.319,0.708,0.709V29.635z"/>
		</g>
		<g>
			<path fill="#23175A" d="M22.593,27.2c0,0.39-0.319,0.709-0.708,0.709H21.39c-0.39,0-0.708-0.319-0.708-0.709v-0.369
				c0-0.39,0.319-0.709,0.708-0.709h0.495c0.39,0,0.708,0.319,0.708,0.709V27.2z"/>
		</g>
		<g>
			<g>
				<path fill="#23175A" d="M33.813,35.909c0,0.39-0.319,0.709-0.709,0.709H18.831c-0.39,0-0.708-0.319-0.708-0.709V35.54
					c0-0.39,0.319-0.709,0.708-0.709h14.273c0.39,0,0.709,0.319,0.709,0.709V35.909z"/>
			</g>
			<g>
				<path fill="#23175A" d="M33.813,38.412c0,0.39-0.319,0.709-0.709,0.709H18.831c-0.39,0-0.708-0.319-0.708-0.709v-0.369
					c0-0.39,0.319-0.709,0.708-0.709h14.273c0.39,0,0.709,0.319,0.709,0.709V38.412z"/>
			</g>
			<g>
				<path fill="#23175A" d="M33.813,33.408c0,0.39-0.319,0.709-0.709,0.709H18.831c-0.39,0-0.708-0.319-0.708-0.709v-0.37
					c0-0.39,0.319-0.709,0.708-0.709h14.273c0.39,0,0.709,0.319,0.709,0.709V33.408z"/>
			</g>
			<g>
				<path fill="#23175A" d="M33.813,43.416c0,0.39-0.319,0.709-0.709,0.709H18.831c-0.39,0-0.708-0.319-0.708-0.709v-0.369
					c0-0.39,0.319-0.709,0.708-0.709h14.273c0.39,0,0.709,0.319,0.709,0.709V43.416z"/>
			</g>
			<g>
				<path fill="#23175A" d="M33.813,40.914c0,0.39-0.319,0.709-0.709,0.709H18.831c-0.39,0-0.708-0.319-0.708-0.709v-0.369
					c0-0.39,0.319-0.709,0.708-0.709h14.273c0.39,0,0.709,0.319,0.709,0.709V40.914z"/>
			</g>
		</g>
		<g>
			<path fill="#23175A" d="M16.974,35.909c0,0.39-0.319,0.709-0.708,0.709h-0.495c-0.39,0-0.708-0.319-0.708-0.709V35.54
				c0-0.39,0.319-0.709,0.708-0.709h0.495c0.39,0,0.708,0.319,0.708,0.709V35.909z"/>
		</g>
		<g>
			<path fill="#23175A" d="M16.974,38.412c0,0.39-0.319,0.709-0.708,0.709h-0.495c-0.39,0-0.708-0.319-0.708-0.709v-0.369
				c0-0.39,0.319-0.709,0.708-0.709h0.495c0.39,0,0.708,0.319,0.708,0.709V38.412z"/>
		</g>
		<g>
			<path fill="#23175A" d="M16.974,33.408c0,0.39-0.319,0.709-0.708,0.709h-0.495c-0.39,0-0.708-0.319-0.708-0.709v-0.37
				c0-0.39,0.319-0.709,0.708-0.709h0.495c0.39,0,0.708,0.319,0.708,0.709V33.408z"/>
		</g>
		<g>
			<path fill="#23175A" d="M16.974,43.416c0,0.39-0.319,0.709-0.708,0.709h-0.495c-0.39,0-0.708-0.319-0.708-0.709v-0.369
				c0-0.39,0.319-0.709,0.708-0.709h0.495c0.39,0,0.708,0.319,0.708,0.709V43.416z"/>
		</g>
		<g>
			<path fill="#23175A" d="M17.031,40.981c0,0.39-0.319,0.709-0.708,0.709h-0.495c-0.39,0-0.708-0.319-0.708-0.709v-0.369
				c0-0.39,0.319-0.709,0.708-0.709h0.495c0.39,0,0.708,0.319,0.708,0.709V40.981z"/>
		</g>
	</g>
	<defs>
		<filter id="Adobe_OpacityMaskFilter_1_" filterUnits="userSpaceOnUse" x="1.434" y="3.36" width="46.013" height="41.617">
			<feFlood  style="flood-color:white;flood-opacity:1" result="back"/>
			<feBlend  in="SourceGraphic" in2="back" mode="normal"/>
		</filter>
	</defs>
	<mask maskUnits="userSpaceOnUse" x="1.434" y="3.36" width="46.013" height="41.617" id="SVGID_3_">
		<g filter="url(#Adobe_OpacityMaskFilter_1_)">
			<defs>
				<filter id="Adobe_OpacityMaskFilter_2_" filterUnits="userSpaceOnUse" x="9.174" y="1.724" width="31.881" height="43.673">
					<feColorMatrix  type="matrix" values="1 0 0 0 0  0 1 0 0 0  0 0 1 0 0  0 0 0 1 0"/>
				</filter>
			</defs>
			<mask maskUnits="userSpaceOnUse" x="9.174" y="1.724" width="31.881" height="43.673" id="SVGID_3_">
				<g filter="url(#Adobe_OpacityMaskFilter_2_)">
					<linearGradient id="SVGID_4_" gradientUnits="userSpaceOnUse" x1="24.748" y1="45.9863" x2="24.748" y2="2.1172">
						<stop  offset="0.0056" style="stop-color:#000000"/>
						<stop  offset="0.0399" style="stop-color:#161616"/>
						<stop  offset="0.1164" style="stop-color:#424242"/>
						<stop  offset="0.1963" style="stop-color:#686868"/>
						<stop  offset="0.2788" style="stop-color:#878787"/>
						<stop  offset="0.365" style="stop-color:#9F9F9F"/>
						<stop  offset="0.4561" style="stop-color:#AFAFAF"/>
						<stop  offset="0.5558" style="stop-color:#BABABA"/>
						<stop  offset="0.6798" style="stop-color:#BDBDBD"/>
						<stop  offset="0.7615" style="stop-color:#BABABA"/>
						<stop  offset="0.8095" style="stop-color:#B2B2B2"/>
						<stop  offset="0.8489" style="stop-color:#A4A4A4"/>
						<stop  offset="0.8835" style="stop-color:#909090"/>
						<stop  offset="0.9151" style="stop-color:#767676"/>
						<stop  offset="0.9444" style="stop-color:#565656"/>
						<stop  offset="0.972" style="stop-color:#303030"/>
						<stop  offset="0.9975" style="stop-color:#050505"/>
						<stop  offset="1" style="stop-color:#000000"/>
					</linearGradient>
					<rect x="7.295" y="2.117" fill="url(#SVGID_4_)" width="34.905" height="43.87"/>
				</g>
			</mask>
			<g opacity="0.3" mask="url(#SVGID_3_)">
				<g>
					<g>
						<path fill="none" stroke="#005281" stroke-width="0.5" d="M34.925,15.81c0,0.39-0.319,0.708-0.709,0.708H14.299
							c-0.39,0-0.708-0.319-0.708-0.708V4.036c0-0.39,0.319-0.708,0.708-0.708h19.917c0.39,0,0.709,0.319,0.709,0.708V15.81z"/>
					</g>
					<g>
						<g>
							<g>
								<path fill="#004075" d="M33.873,7.623c0,0.39-0.319,0.708-0.709,0.708H18.891c-0.39,0-0.708-0.319-0.708-0.708V7.252
									c0-0.39,0.319-0.708,0.708-0.708h14.273c0.39,0,0.709,0.319,0.709,0.708V7.623z"/>
							</g>
							<g>
								<path fill="#004075" d="M33.873,10.125c0,0.39-0.319,0.708-0.709,0.708H18.891c-0.39,0-0.708-0.319-0.708-0.708v-0.37
									c0-0.39,0.319-0.708,0.708-0.708h14.273c0.39,0,0.709,0.319,0.709,0.708V10.125z"/>
							</g>
							<g>
								<path fill="#004075" d="M33.873,5.121c0,0.39-0.319,0.708-0.709,0.708H18.891c-0.39,0-0.708-0.319-0.708-0.708V4.75
									c0-0.39,0.319-0.708,0.708-0.708h14.273c0.39,0,0.709,0.319,0.709,0.708V5.121z"/>
							</g>
							<g>
								<path fill="#004075" d="M33.873,15.129c0,0.39-0.319,0.708-0.709,0.708H18.891c-0.39,0-0.708-0.319-0.708-0.708v-0.37
									c0-0.39,0.319-0.708,0.708-0.708h14.273c0.39,0,0.709,0.319,0.709,0.708V15.129z"/>
							</g>
							<g>
								<path fill="#004075" d="M33.873,12.627c0,0.39-0.319,0.708-0.709,0.708H18.891c-0.39,0-0.708-0.319-0.708-0.708v-0.37
									c0-0.39,0.319-0.708,0.708-0.708h14.273c0.39,0,0.709,0.319,0.709,0.708V12.627z"/>
							</g>
						</g>
						<g>
							<g>
								<path fill="#004075" d="M17.034,7.623c0,0.39-0.319,0.708-0.708,0.708H15.83c-0.39,0-0.708-0.319-0.708-0.708V7.252
									c0-0.39,0.319-0.708,0.708-0.708h0.495c0.39,0,0.708,0.319,0.708,0.708V7.623z"/>
							</g>
							<g>
								<path fill="#004075" d="M17.034,10.125c0,0.39-0.319,0.708-0.708,0.708H15.83c-0.39,0-0.708-0.319-0.708-0.708v-0.37
									c0-0.39,0.319-0.708,0.708-0.708h0.495c0.39,0,0.708,0.319,0.708,0.708V10.125z"/>
							</g>
							<g>
								<path fill="#004075" d="M17.034,5.121c0,0.39-0.319,0.708-0.708,0.708H15.83c-0.39,0-0.708-0.319-0.708-0.708V4.75
									c0-0.39,0.319-0.708,0.708-0.708h0.495c0.39,0,0.708,0.319,0.708,0.708V5.121z"/>
							</g>
							<g>
								<path fill="#004075" d="M17.034,15.129c0,0.39-0.319,0.708-0.708,0.708H15.83c-0.39,0-0.708-0.319-0.708-0.708v-0.37
									c0-0.39,0.319-0.708,0.708-0.708h0.495c0.39,0,0.708,0.319,0.708,0.708V15.129z"/>
							</g>
							<g>
								<path fill="#004075" d="M17.034,12.627c0,0.39-0.319,0.708-0.708,0.708H15.83c-0.39,0-0.708-0.319-0.708-0.708v-0.37
									c0-0.39,0.319-0.708,0.708-0.708h0.495c0.39,0,0.708,0.319,0.708,0.708V12.627z"/>
							</g>
						</g>
					</g>
				</g>
				<g>
					<g>
						<path fill="none" stroke="#005281" stroke-width="0.5" d="M40.805,30.28c0,0.39-0.319,0.709-0.709,0.709H20.18
							c-0.39,0-0.708-0.319-0.708-0.709V18.506c0-0.39,0.319-0.708,0.708-0.708h19.917c0.39,0,0.709,0.319,0.709,0.708V30.28z"/>
					</g>
				</g>
				<g>
					<g>
						<path fill="none" stroke="#005281" stroke-width="0.5" d="M35.038,44.224c0,0.39-0.319,0.709-0.709,0.709H14.412
							c-0.39,0-0.708-0.319-0.708-0.709V32.45c0-0.39,0.319-0.709,0.708-0.709h19.917c0.39,0,0.709,0.319,0.709,0.709V44.224z"/>
					</g>
				</g>
				<g>
					<line fill="none" stroke="#005281" stroke-linecap="round" x1="9.674" y1="2.224" x2="9.674" y2="44.897"/>
					<line fill="none" stroke="#005281" stroke-linecap="round" x1="9.674" y1="39.122" x2="13.293" y2="39.122"/>
					<line fill="none" stroke="#005281" stroke-linecap="round" x1="9.864" y1="9.125" x2="13.143" y2="9.125"/>
					<line fill="none" stroke="#005281" stroke-linecap="round" x1="16.459" y1="16.73" x2="16.459" y2="23.279"/>
					<line fill="none" stroke="#005281" stroke-linecap="round" x1="16.459" y1="23.279" x2="19.173" y2="23.279"/>
				</g>
				<g>
					<g>
						<path fill="#004075" d="M39.373,22.123c0,0.39-0.319,0.708-0.709,0.708H24.391c-0.39,0-0.709-0.319-0.709-0.708v-0.371
							c0-0.39,0.319-0.708,0.709-0.708h14.272c0.39,0,0.709,0.319,0.709,0.708V22.123z"/>
					</g>
					<g>
						<path fill="#004075" d="M39.373,24.624c0,0.39-0.319,0.709-0.709,0.709H24.391c-0.39,0-0.709-0.319-0.709-0.709v-0.369
							c0-0.39,0.319-0.708,0.709-0.708h14.272c0.39,0,0.709,0.319,0.709,0.708V24.624z"/>
					</g>
					<g>
						<path fill="#004075" d="M39.373,19.621c0,0.39-0.319,0.708-0.709,0.708H24.391c-0.39,0-0.709-0.319-0.709-0.708V19.25
							c0-0.39,0.319-0.708,0.709-0.708h14.272c0.39,0,0.709,0.319,0.709,0.708V19.621z"/>
					</g>
					<g>
						<path fill="#004075" d="M39.373,29.628c0,0.39-0.319,0.709-0.709,0.709H24.391c-0.39,0-0.709-0.319-0.709-0.709v-0.369
							c0-0.39,0.319-0.709,0.709-0.709h14.272c0.39,0,0.709,0.319,0.709,0.709V29.628z"/>
					</g>
					<g>
						<path fill="#004075" d="M39.373,27.126c0,0.39-0.319,0.709-0.709,0.709H24.391c-0.39,0-0.709-0.319-0.709-0.709v-0.369
							c0-0.39,0.319-0.709,0.709-0.709h14.272c0.39,0,0.709,0.319,0.709,0.709V27.126z"/>
					</g>
				</g>
				<g>
					<path fill="#004075" d="M22.534,22.123c0,0.39-0.319,0.708-0.708,0.708H21.33c-0.39,0-0.708-0.319-0.708-0.708v-0.371
						c0-0.39,0.319-0.708,0.708-0.708h0.495c0.39,0,0.708,0.319,0.708,0.708V22.123z"/>
				</g>
				<g>
					<path fill="#004075" d="M22.534,24.624c0,0.39-0.319,0.709-0.708,0.709H21.33c-0.39,0-0.708-0.319-0.708-0.709v-0.369
						c0-0.39,0.319-0.708,0.708-0.708h0.495c0.39,0,0.708,0.319,0.708,0.708V24.624z"/>
				</g>
				<g>
					<path fill="#004075" d="M22.534,19.621c0,0.39-0.319,0.708-0.708,0.708H21.33c-0.39,0-0.708-0.319-0.708-0.708V19.25
						c0-0.39,0.319-0.708,0.708-0.708h0.495c0.39,0,0.708,0.319,0.708,0.708V19.621z"/>
				</g>
				<g>
					<path fill="#004075" d="M22.534,29.628c0,0.39-0.319,0.709-0.708,0.709H21.33c-0.39,0-0.708-0.319-0.708-0.709v-0.369
						c0-0.39,0.319-0.709,0.708-0.709h0.495c0.39,0,0.708,0.319,0.708,0.709V29.628z"/>
				</g>
				<g>
					<path fill="#004075" d="M22.59,27.194c0,0.39-0.319,0.709-0.708,0.709h-0.495c-0.39,0-0.708-0.319-0.708-0.709v-0.369
						c0-0.39,0.319-0.709,0.708-0.709h0.495c0.39,0,0.708,0.319,0.708,0.709V27.194z"/>
				</g>
				<g>
					<g>
						<path fill="#004075" d="M33.81,35.903c0,0.39-0.319,0.709-0.709,0.709H18.828c-0.39,0-0.708-0.319-0.708-0.709v-0.369
							c0-0.39,0.319-0.709,0.708-0.709h14.273c0.39,0,0.709,0.319,0.709,0.709V35.903z"/>
					</g>
					<g>
						<path fill="#004075" d="M33.81,38.405c0,0.39-0.319,0.709-0.709,0.709H18.828c-0.39,0-0.708-0.319-0.708-0.709v-0.369
							c0-0.39,0.319-0.709,0.708-0.709h14.273c0.39,0,0.709,0.319,0.709,0.709V38.405z"/>
					</g>
					<g>
						<path fill="#004075" d="M33.81,33.401c0,0.39-0.319,0.709-0.709,0.709H18.828c-0.39,0-0.708-0.319-0.708-0.709v-0.369
							c0-0.39,0.319-0.709,0.708-0.709h14.273c0.39,0,0.709,0.319,0.709,0.709V33.401z"/>
					</g>
					<g>
						<path fill="#004075" d="M33.81,43.409c0,0.39-0.319,0.709-0.709,0.709H18.828c-0.39,0-0.708-0.319-0.708-0.709V43.04
							c0-0.39,0.319-0.709,0.708-0.709h14.273c0.39,0,0.709,0.319,0.709,0.709V43.409z"/>
					</g>
					<g>
						<path fill="#004075" d="M33.81,40.907c0,0.39-0.319,0.709-0.709,0.709H18.828c-0.39,0-0.708-0.319-0.708-0.709v-0.369
							c0-0.39,0.319-0.709,0.708-0.709h14.273c0.39,0,0.709,0.319,0.709,0.709V40.907z"/>
					</g>
				</g>
				<g>
					<path fill="#004075" d="M16.971,35.903c0,0.39-0.319,0.709-0.708,0.709h-0.495c-0.39,0-0.708-0.319-0.708-0.709v-0.369
						c0-0.39,0.319-0.709,0.708-0.709h0.495c0.39,0,0.708,0.319,0.708,0.709V35.903z"/>
				</g>
				<g>
					<path fill="#004075" d="M16.971,38.405c0,0.39-0.319,0.709-0.708,0.709h-0.495c-0.39,0-0.708-0.319-0.708-0.709v-0.369
						c0-0.39,0.319-0.709,0.708-0.709h0.495c0.39,0,0.708,0.319,0.708,0.709V38.405z"/>
				</g>
				<g>
					<path fill="#004075" d="M16.971,33.401c0,0.39-0.319,0.709-0.708,0.709h-0.495c-0.39,0-0.708-0.319-0.708-0.709v-0.369
						c0-0.39,0.319-0.709,0.708-0.709h0.495c0.39,0,0.708,0.319,0.708,0.709V33.401z"/>
				</g>
				<g>
					<path fill="#004075" d="M16.971,43.409c0,0.39-0.319,0.709-0.708,0.709h-0.495c-0.39,0-0.708-0.319-0.708-0.709V43.04
						c0-0.39,0.319-0.709,0.708-0.709h0.495c0.39,0,0.708,0.319,0.708,0.709V43.409z"/>
				</g>
				<g>
					<path fill="#004075" d="M17.028,40.976c0,0.39-0.319,0.709-0.708,0.709h-0.495c-0.39,0-0.708-0.319-0.708-0.709v-0.369
						c0-0.39,0.319-0.709,0.708-0.709h0.495c0.39,0,0.708,0.319,0.708,0.709V40.976z"/>
				</g>
			</g>
		</g>
	</mask>
	<g>
		<g>
			<path fill="#005281" d="M28.218,25.816v1.15c-2.464,0.206-2.594,0.324-2.497,3.419l0.324,9.876
				c0.098,3.271,0.162,3.36,2.497,3.566v1.149H18.393v-1.149c2.432-0.206,2.529-0.295,2.497-3.566l-0.098-10.377h-0.13
				l-6.258,14.769h-1.752L6.719,30.916H6.655l-0.227,6.545c-0.098,2.534-0.065,3.949,0.064,4.864
				c0.129,1.091,0.844,1.355,2.951,1.503v1.149h-8.01v-1.149c1.557-0.118,2.173-0.412,2.367-1.503
				c0.162-0.915,0.356-2.477,0.52-5.159l0.355-5.955c0.228-3.714-0.031-4.038-2.594-4.244v-1.15h7.621l5.674,11.674l4.961-11.674
				H28.218z"/>
			<path fill="#005281" d="M38.432,40.645c0,1.532,0.064,2.271,0.648,2.535c0.52,0.236,1.265,0.266,2.27,0.266
				c1.038,0,2.433-0.089,3.113-0.855c0.519-0.56,1.07-1.355,1.589-2.918l1.395,0.207c-0.194,1.12-0.876,4.185-1.168,5.099H30.196
				v-1.149c2.465-0.177,2.724-0.383,2.724-3.566v-9.729c0-3.184-0.259-3.39-2.433-3.566v-1.15h10.539v1.15
				c-2.334,0.177-2.594,0.383-2.594,3.566V40.645z"/>
		</g>
		<g>
			<path fill="#005281" d="M26.081,16.186c1.613,4.433-1.196,7.996-4.944,9.359c-4.784,1.741-8.411-0.451-9.562-3.609
				c-1.623-4.461,1.268-8.179,5.016-9.543C21.1,10.752,24.799,12.668,26.081,16.186z M21.353,19.788
				c-1.806-4.958-3.425-6.375-4.705-5.91c-0.944,0.344-1.232,2.018-0.285,4.621c1.21,3.324,3.132,6.138,4.687,5.572
				C21.84,23.783,22.432,22.752,21.353,19.788z"/>
			<path fill="#005281" d="M42.858,19.731c0.455,1.247,0.667,1.263,1.511,1.02l0.965-0.288l0.383,1.052
				c-0.752,0.399-3.911,1.863-6.351,3.504l-0.545-1.496l-0.988,1.364c-0.508,0.687-0.936,0.937-1.393,1.103
				c-2.59,0.942-6.911,0.258-8.506-3.648c-1.594-3.906,0.883-8.384,5.637-10.115c0.305-0.11,0.73-0.171,1.055-0.227l-1.148-3.157
				c-0.596-1.636-0.666-1.641-2.535-1.086L30.58,6.759c1.604-0.804,3.871-2.067,6.32-3.398L42.858,19.731z M35.433,14.215
				c-0.71-0.432-1.339-0.548-1.948-0.326c-0.67,0.244-2.246,1.413-0.834,5.292c1.461,4.017,3.907,4.193,4.639,3.927
				c0.548-0.199,0.844-0.526,1.058-0.887L35.433,14.215z"/>
		</g>
	</g>
</g>
</svg>
