<?xml version="1.0" encoding="utf-8"?>
<!-- Generator: Adobe Illustrator 15.1.0, SVG Export Plug-In . SVG Version: 6.00 Build 0)  -->
<!DOCTYPE svg PUBLIC "-//W3C//DTD SVG 1.1//EN" "http://www.w3.org/Graphics/SVG/1.1/DTD/svg11.dtd">
<svg version="1.1" id="Layer_1" xmlns="http://www.w3.org/2000/svg" xmlns:xlink="http://www.w3.org/1999/xlink" x="0px" y="0px"
	 width="147.239px" height="159.509px" viewBox="0 0 147.239 159.509" enable-background="new 0 0 147.239 159.509"
	 xml:space="preserve">
<g>
	<g id="XMLID_1_">
		<g>
			<defs>
				<path id="SVGID_1_" d="M124.179,64.486l-3.261,0.73l-40.41,9.77l9.99-37.79l2.04-5.7
					C108.429,34.796,120.918,47.996,124.179,64.486z"/>
			</defs>
			<clipPath id="SVGID_2_">
				<use xlink:href="#SVGID_1_"  overflow="visible"/>
			</clipPath>
			<path clip-path="url(#SVGID_2_)" fill="none" stroke="#6A534E" stroke-width="0.75" stroke-miterlimit="10" d="M66.545,39.058
				l15.798,40.99 M68.017,38.55c0,0,1.633,3.812,3.901,9.105c0.207,0.481,0.417,0.976,0.633,1.479
				c0.504,1.15,0.866,2.196,1.344,3.136c0.231,0.539,0.465,1.085,0.701,1.636c4.959,11.577,10.912,25.468,10.912,25.468
				 M70.133,37.819c0,0,0.713,1.77,1.843,4.571c0.283,0.7,0.59,1.465,0.921,2.283c1.395,4.012,3.724,7.308,4.596,11.802
				c0.162,0.583,0.328,1.185,0.521,1.783c0.389,1.196,0.889,2.374,1.705,3.328c0.225,0.56,0.449,1.116,0.672,1.666
				c3.33,8.257,6.185,15.335,6.185,15.335 M74.641,36.263c0,0,0.321,0.975,0.866,2.623c0.181,0.549,0.388,1.174,0.62,1.86
				c2.424,6.47,3.527,13.118,6.358,19.022c0.246,0.681,0.481,1.365,0.701,2.06c0.219,0.694,0.422,1.397,0.603,2.114
				c0.18,0.55,0.358,1.092,0.535,1.626c2.295,6.946,4.091,12.383,4.091,12.383 M91.212,77.406c0,0-0.384-1.169-1.023-3.118
				c-0.213-0.649-0.455-1.386-0.719-2.195c-1.834-3.931-2.631-8.711-3.967-12.978c-0.191-0.61-0.391-1.211-0.604-1.798
				c-2.062-6.31-4.41-13.114-6.631-19.359c-0.183-0.554-0.34-1.033-0.469-1.425c-0.258-0.785-0.4-1.222-0.4-1.222 M94.064,76.421
				c0,0-0.155-0.433-0.433-1.21c-0.14-0.388-0.31-0.863-0.505-1.414c-2.229-4.852-3.076-9.748-4.688-14.691
				c-0.23-0.707-0.477-1.415-0.739-2.125c-1.667-7.077-5.613-13.33-7.722-19.951c-0.174-0.489-0.324-0.91-0.448-1.254
				c-0.246-0.688-0.382-1.068-0.382-1.068 M97.283,75.31c0,0-0.205-0.508-0.57-1.411c-1.686-4.854-3.342-9.644-5.209-14.316
				c-0.267-0.667-0.538-1.332-0.814-1.994c-2.697-7.189-6.473-14.673-9.391-21.716c-0.432-1.066-0.679-1.674-0.679-1.674
				 M98.479,74.897c0,0-0.202-0.509-0.558-1.416c-2.041-5.507-3.953-10.963-6.092-16.173c-0.269-0.652-0.539-1.299-0.811-1.944
				c-2.325-6.378-4.844-11.952-7.402-18.097c-0.301-0.743-0.558-1.393-0.77-1.929c-0.423-1.069-0.664-1.679-0.664-1.679
				 M99.177,74.236c0,0-0.172-0.514-0.475-1.433c-1.959-5.677-3.172-11.403-5.108-16.99c-0.243-0.698-0.495-1.393-0.761-2.089
				c-2.01-5.475-3.997-11.231-6.152-16.761c-0.227-0.668-0.43-1.276-0.609-1.81c-0.537-1.601-0.853-2.543-0.853-2.543
				 M87.519,31.817c0,0,0.58,1.745,1.506,4.522c0.23,0.695,0.483,1.453,0.758,2.265c1.544,4.201,1.925,8.756,3.751,12.741
				c0.247,0.683,0.507,1.367,0.776,2.053c2.422,6.165,5.46,12.458,6.726,19.007c0.306,0.924,0.479,1.444,0.479,1.444 M90.195,30.894
				c0,0,0.951,3.288,2.325,8.037c0.138,0.475,0.279,0.964,0.424,1.467c0.874,2.718,1.245,5.519,1.866,8.248
				c0.158,0.635,0.318,1.266,0.48,1.891c2.342,7.079,5.403,14.224,6.813,21.502c0.271,0.935,0.423,1.461,0.423,1.461 M91.291,30.515
				c0,0,0.659,2.086,1.686,5.333c0.258,0.811,0.536,1.694,0.834,2.639c0.273,1.557,0.58,3.086,0.92,4.596
				c0.17,0.753,0.349,1.503,0.547,2.256c0.445,1.36,0.882,2.677,1.311,3.963c0.214,0.643,0.427,1.278,0.641,1.907
				c1.649,6.563,4.701,11.953,6.437,18.421c0.202,0.66,0.38,1.225,0.526,1.688c0.294,0.926,0.459,1.449,0.459,1.449 M92.579,30.07
				c0,0,0.479,1.137,1.274,3.032c0.266,0.631,0.567,1.348,0.898,2.134c1.357,4.16,2.622,7.825,3.925,12.163
				c0.219,0.611,0.423,1.209,0.624,1.8c0.201,0.589,0.398,1.17,0.607,1.746c1.27,4.862,5.195,7.607,6.914,12.507
				c0.258,0.634,0.473,1.291,0.631,1.977c0.284,0.674,0.549,1.301,0.789,1.873c0.962,2.287,1.553,3.69,1.553,3.69 M95.338,29.118
				c0,0,0.077,0.299,0.22,0.847c0.142,0.548,0.348,1.344,0.606,2.341c0.999,4.969,1.028,10.231,2.676,15.075
				c0.296,0.557,0.528,1.125,0.719,1.698c0.191,0.574,0.341,1.155,0.47,1.738c1.32,3.758,2.585,7.422,3.729,10.848
				c0.247,0.711,0.482,1.422,0.697,2.139c0.432,1.432,0.784,2.879,1.001,4.359c0.211,0.821,0.396,1.535,0.548,2.123
				c0.305,1.177,0.479,1.849,0.479,1.849 M96.74,28.109c0,0,0.108,0.292,0.309,0.826c0.198,0.535,0.488,1.312,0.851,2.291
				c1.575,5.837,2.146,12.67,5.294,18.185c0.286,0.674,0.589,1.338,0.902,1.995c1.885,3.947,4.188,7.648,5.742,11.913
				c0.309,0.813,0.593,1.571,0.851,2.265c1.033,2.775,1.682,4.518,1.682,4.518 M99.662,27.625c0,0,0.168,0.521,0.465,1.45
				c-0.302,7.281,2.58,13.901,5.127,20.723c0.268,0.615,0.542,1.226,0.822,1.834c1.963,4.261,4.178,8.404,5.414,12.859
				c0.26,0.81,0.497,1.549,0.705,2.2c0.627,1.953,1.003,3.125,1.003,3.125 M101.87,26.863c0,0,0.154,0.521,0.43,1.451
				c-0.165,7.831,1.302,15.526,5.032,21.737c0.274,0.606,0.554,1.209,0.836,1.812c1.686,3.615,3.414,7.194,4.346,10.983
				c0.289,0.93,0.543,1.776,0.768,2.525c0.668,2.251,1.075,3.625,1.075,3.625 M102.996,25.95c0,0,0.175,0.519,0.484,1.444
				c1.668,7.124,2.068,15.187,5.926,21.324c0.328,0.694,0.662,1.393,1,2.091c2.027,4.192,4.164,8.426,5.316,13.079
				c0.215,0.642,0.409,1.222,0.58,1.731c0.514,1.529,0.813,2.425,0.813,2.425 M104.814,25.847c0,0,0.178,0.513,0.494,1.425
				c1.617,7.219,1.656,14.235,6.104,20.582c0.305,0.686,0.605,1.373,0.906,2.061c1.799,4.133,3.54,8.297,5.297,12.75
				c0.248,0.712,0.473,1.359,0.67,1.928c0.595,1.708,0.947,2.721,0.947,2.721 M107.757,24.83c0,0,0.16,0.524,0.442,1.455
				c1.739,6.579,2.312,13.411,5.434,19.306c0.265,0.659,0.528,1.323,0.79,1.988c1.828,4.659,3.553,9.381,4.598,14.312
				c0.249,0.814,0.475,1.557,0.674,2.211c0.596,1.963,0.954,3.142,0.954,3.142 M108.953,24.417c0,0,0.174,0.519,0.483,1.441
				c0.155,0.46,0.343,1.023,0.558,1.673c1.724,5.304,2.467,10.906,4.982,15.791c0.298,0.703,0.584,1.408,0.862,2.108
				c1.665,4.203,3.032,8.275,4.438,12.783c0.278,0.807,0.537,1.571,0.779,2.285c1.199,3.577,1.984,5.918,1.984,5.918
				 M110.333,23.941c0,0,0.183,0.516,0.509,1.432c0.163,0.458,0.361,1.017,0.59,1.661c0.226,0.631,0.451,1.27,0.682,1.913
				c1.383,3.862,2.828,8.049,4.156,11.767c0.231,0.646,0.461,1.292,0.691,1.931c0.262,0.731,0.521,1.456,0.776,2.17
				c1.36,4.22,2.806,8.407,4.524,12.718c0.283,0.801,0.554,1.561,0.807,2.272c1.262,3.555,2.089,5.882,2.089,5.882 M112.541,23.179
				c0,0,0.375,1.161,1,3.096c0.209,0.645,0.444,1.375,0.704,2.178c0.26,0.691,0.481,1.378,0.683,2.062
				c0.199,0.686,0.377,1.367,0.547,2.047c0.521,2.312,1.064,3.883,1.759,6.051c0.267,0.667,0.573,1.332,0.933,1.995
				c0.188,0.57,0.375,1.146,0.562,1.724c0.178,0.551,0.355,1.102,0.533,1.653s0.355,1.103,0.532,1.652
				c1.081,3.369,1.984,5.987,3.042,9.41c0.153,0.477,0.305,0.944,0.451,1.399c1.615,4.997,2.752,8.518,2.752,8.518 M114.472,22.512
				c0,0,1.272,3.937,3.039,9.404c0.161,0.497,0.326,1.007,0.494,1.527c0.301,1.22,0.662,2.267,1.047,3.238
				c0.18,0.557,0.363,1.121,0.547,1.69c3.863,11.955,8.5,26.301,8.5,26.301 M90.015,77.819c0,0-0.578-1.328-1.528-3.504
				c-0.315-0.726-0.674-1.545-1.063-2.442c-2.348-2.308-1.123-5.659-3.379-7.743c-0.233-0.585-0.461-1.165-0.685-1.738
				c-0.26-0.667-0.516-1.327-0.771-1.979c-0.255-0.652-0.509-1.3-0.769-1.942c-1.814-5.314-4.686-10.181-6.972-15.44
				c-0.397-0.893-0.754-1.712-1.07-2.438c-0.949-2.175-1.529-3.504-1.529-3.504 M115.708,23.687c0,0-3.145,1.028-7.863,2.572
				c-0.472,0.153-0.959,0.313-1.461,0.478c-2.521,0.61-5.715,1.712-8.39,2.745c-0.603,0.197-1.214,0.396-1.829,0.598
				c-14.143,4.626-30.779,10.068-30.779,10.068 M65.667,40.961c0,0,2.479,0.358,6.419,0.926c0.788,0.113,1.635,0.236,2.534,0.364
				c6.753,1.06,14.576,1.288,21.345,3.979c0.716,0.233,1.422,0.471,2.12,0.712c3.946,2.711,8.025,0.716,12.34,1.093
				c0.652-0.013,1.303-0.02,1.949-0.019c3.237,0.004,6.428,0.201,9.698,1.083c0.538,0.077,0.999,0.143,1.374,0.197
				c0.751,0.108,1.16,0.167,1.16,0.167 M66.042,42.047c0,0,4.157-1.368,10.081-3.317c0.846-0.279,1.729-0.569,2.639-0.869
				c2.221-0.858,3.818-1.409,5.763-1.896c0.5-0.165,1.003-0.33,1.511-0.497c2.954-0.973,6.009-1.979,8.989-2.96
				c0.597-0.196,1.189-0.391,1.779-0.582c4.589-1.383,9.381-3.037,14.3-4.709c0.805-0.264,1.533-0.504,2.174-0.716
				c1.924-0.633,3.056-1.005,3.056-1.005 M66.573,43.584c0,0,2.45-0.666,6.277-1.707c0.766-0.209,1.586-0.432,2.455-0.67
				c4.452-0.853,9.062-3.03,13.753-3.741c0.556-0.151,1.114-0.303,1.674-0.455c0.559-0.152,1.119-0.304,1.679-0.456
				c0.56-0.153,1.12-0.305,1.679-0.458c6.971-1.34,13.721-2.5,20.219-5.49c0.676-0.197,1.352-0.385,2.027-0.562
				c0.922-0.251,1.434-0.39,1.434-0.39 M67.603,46.569c0,0,1.511-0.593,4.003-1.57c0.623-0.245,1.307-0.514,2.047-0.805
				c5.581-1.901,10.011-4.602,15.614-6.127c0.533-0.209,1.072-0.421,1.611-0.631c0.538-0.213,1.078-0.424,1.617-0.635
				c0.541-0.212,1.079-0.424,1.617-0.635c6.416-1.225,11.91-4.293,17.58-6.895c0.746-0.311,1.491-0.604,2.236-0.882
				c0.629-0.246,1.172-0.459,1.615-0.634c0.889-0.348,1.381-0.542,1.381-0.542 M68.478,49.101c0,0,0.612-0.22,1.7-0.61
				c0.544-0.196,1.207-0.435,1.973-0.709c6.39-2.321,12.778-4.526,19.38-6.968c0.614-0.22,1.234-0.442,1.855-0.657
				c8.406-1.551,15.68-4.647,23.517-8.46c0.899-0.323,1.397-0.503,1.397-0.503 M69.196,51.182c0,0,0.628-0.231,1.745-0.642
				c0.558-0.205,1.239-0.456,2.023-0.743c6.311-1.713,12.687-4.816,19.241-6.761c0.728-0.215,1.458-0.418,2.19-0.602
				c8.482-0.688,16.106-4.492,23.102-9.007c0.899-0.333,1.396-0.516,1.396-0.516 M69.852,53.082c0,0,0.562-0.203,1.566-0.566
				c0.502-0.182,1.116-0.404,1.824-0.66c6.712-1.68,13.127-4.78,20.224-6.567c0.788-0.199,1.586-0.38,2.392-0.542
				c7.03-1.246,13.59-4.681,20.375-8.24c0.668-0.315,1.338-0.618,2.011-0.915c0.901-0.328,1.4-0.508,1.4-0.508 M70.694,55.524
				c0,0,0.978-0.375,2.66-1.019c0.56-0.215,1.198-0.459,1.909-0.732c6.692-1.875,13.25-5.311,20.096-6.79
				c0.657-0.192,1.312-0.381,1.961-0.565c7.174-1.716,14.275-3.582,20.096-8.403c0.455-0.292,0.905-0.596,1.354-0.908
				c0.894-0.344,1.388-0.533,1.388-0.533 M70.882,56.066c0,0,0.866-0.31,2.373-0.848c0.501-0.179,1.075-0.383,1.71-0.61
				c6.458-2.526,13.207-3.685,19.678-6.022c0.718-0.231,1.437-0.469,2.149-0.709c0.712-0.242,1.421-0.487,2.122-0.735
				c6.474-1.576,11.969-4.645,18.086-7.241c0.462-0.214,0.925-0.431,1.389-0.647c0.463-0.218,0.928-0.438,1.393-0.658
				c0.906-0.324,1.408-0.503,1.408-0.503 M71.288,57.241c0,0,1.32-0.46,3.53-1.233c0.738-0.257,1.573-0.549,2.5-0.871
				c5.712-1.853,11.929-2.828,18.034-4.922c0.738-0.246,1.469-0.507,2.193-0.787c0.724-0.28,1.439-0.578,2.146-0.898
				c5.525-1.735,11.381-3.756,16.525-6.632c0.671-0.339,1.34-0.688,2.01-1.046c0.641-0.228,1.19-0.421,1.641-0.577
				c0.9-0.314,1.4-0.489,1.4-0.489 M72.256,60.046c0,0,1.112-0.428,3.003-1.154c0.631-0.242,1.348-0.518,2.139-0.822
				c0.452-0.15,0.906-0.299,1.361-0.445c4.992-2.247,10.857-2.514,15.91-4.688c0.553-0.185,1.104-0.383,1.652-0.598
				c0.549-0.216,1.094-0.449,1.639-0.706c0.654-0.308,1.307-0.65,1.959-1.034c0.73-0.279,1.457-0.563,2.182-0.851
				c4.19-1.565,8.8-3.743,12.715-5.575c0.686-0.328,1.369-0.655,2.049-0.984c0.611-0.32,1.225-0.648,1.834-0.983
				c0.631-0.242,1.176-0.451,1.62-0.622c0.89-0.342,1.384-0.532,1.384-0.532 M71.663,58.328c0,0,1.322-0.456,3.534-1.221
				c0.738-0.254,1.575-0.543,2.498-0.86c5.514-2.439,11.381-2.707,17.348-4.647c0.471-0.186,0.939-0.375,1.416-0.562
				c0.477-0.186,0.96-0.367,1.458-0.537c0.726-0.277,1.442-0.571,2.151-0.889c0.688-0.221,1.383-0.445,2.08-0.674
				c4.495-1.463,8.221-2.75,12.51-4.838c0.67-0.321,1.332-0.649,1.982-0.988c0.676-0.328,1.35-0.664,2.023-1.01
				c0.639-0.22,1.188-0.41,1.639-0.565c0.9-0.311,1.4-0.484,1.4-0.484 M72.849,61.765c0,0,1.123-0.432,3.031-1.164
				c0.637-0.244,1.36-0.522,2.158-0.829c0.803-0.285,1.606-0.552,2.408-0.806c0.803-0.252,1.604-0.493,2.406-0.726
				c2.867-0.613,5.881-2.239,8.479-2.74c0.702-0.211,1.411-0.424,2.122-0.643c1.42-0.439,2.844-0.903,4.236-1.443
				c0.697-0.27,1.387-0.558,2.064-0.871c1.457-0.737,2.939-1.46,4.432-2.165c0.746-0.353,1.495-0.701,2.244-1.043
				c2.531-0.317,4.65-2.807,6.731-2.948c0.743-0.311,1.479-0.615,2.213-0.912c0.731-0.298,1.458-0.587,2.179-0.871
				c0.804-0.306,1.528-0.583,2.164-0.828c1.909-0.732,3.032-1.163,3.032-1.163 M73.348,63.211c0,0,1.125-0.425,3.038-1.147
				c0.637-0.24,1.362-0.514,2.161-0.816c1.374-0.373,2.743-0.759,4.103-1.161c0.679-0.201,1.357-0.406,2.033-0.615
				c4.514-0.916,8.931-3.269,13.359-5.079c0.736-0.303,1.475-0.59,2.211-0.852c6.941-2.742,14.213-5.838,20.941-8.398
				c1.368-0.516,2.148-0.811,2.148-0.811 M74.067,65.292c0,0,1.973-0.774,5.129-2.013c0.79-0.31,1.651-0.649,2.582-1.01
				c0.716-0.222,1.423-0.446,2.125-0.67c5.384-1.739,10.303-3.688,15.23-5.694c0.703-0.285,1.405-0.573,2.103-0.864
				c6.14-3.718,13.422-5.061,19.608-8.107c0.539-0.211,1.001-0.392,1.378-0.54c0.753-0.295,1.168-0.458,1.168-0.458 M74.409,67.502
				c0,0,3.105-1.218,7.765-3.045c0.467-0.183,0.948-0.372,1.445-0.565c5.471-1.255,10.76-3.752,15.949-5.973
				c0.739-0.315,1.478-0.627,2.207-0.93c6.685-2.525,13.957-5.622,20.94-8.428c0.896-0.351,1.392-0.545,1.392-0.545 M75.316,68.909
				c0,0,2.6-0.988,6.608-2.511c0.802-0.304,1.659-0.63,2.565-0.974c5.234-2.457,10.633-3.94,16.059-5.829
				c0.773-0.269,1.547-0.546,2.313-0.839c6.673-2.906,13.062-5.111,19.626-7.772c0.497-0.188,0.921-0.35,1.268-0.481
				c0.691-0.263,1.07-0.407,1.07-0.407 M125.544,52.177c0,0-0.438,0.158-1.23,0.446c-0.396,0.144-0.883,0.321-1.447,0.527
				c-6.584,1.541-13.143,4.977-19.532,7.097c-0.77,0.279-1.54,0.557-2.309,0.832c-5.387,1.933-10.677,3.813-16.136,5.876
				c-0.491,0.178-0.967,0.352-1.428,0.52c-4.611,1.676-7.679,2.792-7.679,2.792 M76.22,72.748c0,0,2.385-0.912,6.112-2.334
				c0.747-0.285,1.545-0.589,2.39-0.912c5.719-2.275,11.939-4.497,17.924-6.78c0.666-0.253,1.328-0.509,1.985-0.764
				c5.454-2.784,11.672-3.759,17.391-6.699c0.634-0.24,1.203-0.457,1.702-0.647c1.492-0.57,2.351-0.898,2.351-0.898 M127.09,55.186
				c0,0-1.148,0.426-3.097,1.15c-0.65,0.242-1.391,0.517-2.207,0.819c-4.941,2.615-11.159,3.589-16.284,5.854
				c-0.712,0.216-1.423,0.446-2.132,0.688c-5.681,1.937-11.301,4.629-16.711,6.508c-0.475,0.176-0.938,0.349-1.387,0.515
				c-4.941,1.836-8.271,3.073-8.271,3.073 M77.501,75.24c0,0,3.805-1.359,9.321-3.33c0.501-0.179,1.017-0.363,1.546-0.552
				c6.66-2.299,13.049-4.504,19.904-7.111c0.613-0.22,1.224-0.438,1.826-0.654c3.029-0.782,6.575-2.592,9.848-3.518
				c0.944-0.337,1.824-0.651,2.63-0.939c3.22-1.15,5.231-1.869,5.231-1.869 M128.121,58.17c0,0-2.351,0.878-6.038,2.254
				c-0.737,0.275-1.528,0.57-2.364,0.883c-1.799-0.151-3.566,1.631-5.496,2.051c-0.492,0.185-0.991,0.371-1.496,0.56
				c-1.519,0.567-3.094,1.154-4.696,1.752c-0.562,0.211-1.128,0.422-1.695,0.631c-5.622,1.967-10.944,3.805-16.578,6.191
				c-0.497,0.186-0.986,0.368-1.463,0.547c-6.204,2.315-10.606,3.959-10.606,3.959 M78.844,79.129c0,0,5.251-2.08,12.339-4.887
				c0.547-0.217,1.102-0.437,1.668-0.661c4.326-1.75,8.585-3.22,12.713-5.036c0.619-0.245,1.238-0.49,1.854-0.734
				c11.074-4.387,21.141-8.375,21.141-8.375 M79.093,79.854c0,0,6.1-2.205,14.029-5.071c0.566-0.205,1.142-0.413,1.725-0.624
				c3.404-0.941,5.885-2.383,9.143-3.305c0.623-0.225,1.244-0.45,1.865-0.674c11.795-4.265,23.029-8.325,23.029-8.325
				 M125.544,52.177c0,0-0.423,0.202-1.188,0.57c-0.383,0.183-0.851,0.409-1.397,0.67c-6.313,2.321-12.691,6.28-18.637,8.992
				c-0.729,0.349-1.463,0.695-2.199,1.041c-5.156,2.419-10.452,4.792-15.359,7.343c-0.455,0.219-0.898,0.432-1.328,0.639
				c-4.74,2.276-7.934,3.808-7.934,3.808 M104.652,25.378c0,0-0.039,0.487-0.109,1.364c-0.82,7.097-2.378,14.664-2.068,21.843
				c0.016,0.608-0.004,1.214-0.045,1.817c-0.168,2.414-0.683,4.781-0.589,7.413c-0.04,0.714-0.088,1.429-0.139,2.146
				c-0.304,4.296-0.713,8.618-0.814,12.777c-0.069,0.877-0.108,1.364-0.108,1.364 M96.179,75.691c0,0-0.265-0.396-0.739-1.104
				c-2.382-4.652-6.239-8.938-9.342-13.592c-0.443-0.665-0.871-1.337-1.276-2.02c-3.039-5.847-7.154-10.869-11.064-16.759
				c-0.469-0.701-0.895-1.337-1.271-1.898c-1.128-1.684-1.801-2.688-1.801-2.688"/>
			<use xlink:href="#SVGID_1_"  overflow="visible" fill="none" stroke="#6A534E" stroke-width="2" stroke-miterlimit="10"/>
		</g>
		<g>
			<path fill="none" stroke="#000000" stroke-miterlimit="10" d="M43.188,82.776c7.84-2.65,14.9,8.84,22.47-1.12
				c5.5-7.23,4.71-21.11,4.92-29.9c0.73,11.21-0.3,23.1,1.26,34.22c1.22,8.75,4.021,18.5,3.83,27.18
				c0.42-6.35,0.64-19.17,3.931-24.51c4.649-7.54,19.159-2.07,26.639-2.05"/>
			<path fill="none" stroke="#008D36" stroke-width="2" stroke-miterlimit="10" d="M124.179,64.486l6.159-1.37
				c0.08,0.13,0.17,0.26,0.271,0.39c2.729,3.61,8.6,3.52,12.479,4.73c-0.649,4.3-5.64,6.08-8.83,8.68
				c-0.479,0.38-0.94,0.8-1.39,1.25c-3.4,3.38-6.09,8.49-6.53,13.29c2.61,0.99,5.54,1.21,8.19,1.9c-1.551,1.99-7.051,4.06-7.66,6.65
				c-1.37,5.77,11.279,9.38,14.99,12.56c-5.69,0.42-9.5-0.22-14.601-2.4c-1.489-0.64-4.68-2.93-6.36-2.58
				c-1.609,0.33-6.369,6.47-7.279,7.63c-2.311,2.94-3.08,1.45-3,6.19c0.1,6.3,5.369,12.24,7.1,18.13
				c-3.08-4.32-6.52-13.93-12.06-15.63c-7.671-2.34-14.33,2.11-17.25,8.55c-2.04,4.5-5.69,8.04-6.979,12.9
				c1.889-7.14,2.93-15.331-5.011-17.831c-11.07-3.47-14.85,5.49-18.33,13.89c3.28-8.38,4.51-22.3-9.11-18.38
				c-4.15,1.19-9.37,7.43-11.4,11.33c3.65-8.24,6.79-37.28-9.7-30.31c-4.96,2.1-8.55,7.04-12.73,10.27
				c-0.01,0.01-0.03,0.03-0.05,0.04c5.46-5.64,13.79-13.37,13.78-21.89c0-4.18-2.18-7.78-5.24-10.4
				c-1.71-1.47-10.95-7.59-12.71-7.63c11.77,0.25,23.51-8.59,10.2-17.83c7.05,4.89,14.67-1.92,14.44-9.6
				c-0.06-2.14-6.21-14.6-7.55-15.13c5.09,2.03,8.1,6.76,13.96,6.28c5.19-0.43,11.59-5.59,13.87-10.07
				c1.45-2.83,2.62-14.56,0.67-17.08c4.92,6.36,7.75,23.82,18.71,12.15c3.75-3.99,4.85-13.29,4.9-18.54
				c0,9.09-1.561,19.17,8.28,21.46c2.35,0.55,4.31,0.56,6,0.17l-1.87,5.24l-2.04,5.7l-9.99,37.79l40.41-9.77L124.179,64.486z"/>
		</g>
	</g>
</g>
</svg>
